<?xml version="1.0"?>
<svg id="Capa_1" xmlns="http://www.w3.org/2000/svg" version="1.1" viewBox="0 0 117 117">
  
  <defs>
    
  </defs>
  <path class="st0" d="M55.3,8c22.5-2.7,44,10.9,51.2,32.2,14.1,41.3-27.3,77-66.3,59.8-5.1,1.1-25,10.3-28.7,9.3s-3.8-2.3-3.9-4c-.3-5.4,8.9-21.9,9.5-28.5s-2.5-7.3-3.1-10.1C8.5,38.6,26.2,11.4,55.3,8ZM19.6,97.7c.8.8,18.5-6.8,21.6-7s10.3,4.1,15.2,4.7c34.7,4,57.8-36.2,35.7-63.7C67.7,1.2,19,20.7,21.6,59.2s5.1,14.6,4.9,17.9-7.9,19.6-7,20.6Z"></path>
  <path class="st0" d="M74.3,71.4c-2.8,2.3-7.2,1.7-7.7-2.3s6.5-8.7,8.1-12.9c0-2.1-7-7.4-7.9-10.2-1.6-5.3,3.4-8.2,7.8-4.7s9.9,12.5,10.1,14c.3,2.9-8,14.2-10.3,16.1Z"></path>
  <path class="st0" d="M47.9,71.4c-2.2-1.8-10.7-13.3-10.3-16.1s9.1-13.3,10.3-14.3c4.1-3.3,9.1-.2,7.5,5s-7.9,8.1-7.9,10.2c1.7,4.1,8.7,8.2,8.1,12.9s-5,4.5-7.7,2.3Z"></path>
</svg>