<?xml version="1.0"?>
<svg id="Capa_1" data-name="Capa 1" xmlns="http://www.w3.org/2000/svg" xmlns:xlink="http://www.w3.org/1999/xlink" viewBox="0 0 253.37 39.57">
  <defs>
    
    <linearGradient id="Degradado_sin_nombre_54" data-name="Degradado sin nombre 54" x1=".51" y1="14.46" x2="28.91" y2="14.46" gradientUnits="userSpaceOnUse">
      <stop offset="0" stop-color="#31cb24"></stop>
      <stop offset=".2" stop-color="#51d229"></stop>
      <stop offset=".4" stop-color="#69d72d"></stop>
      <stop offset=".6" stop-color="#87de33"></stop>
      <stop offset=".8" stop-color="#a2e437"></stop>
      <stop offset="1" stop-color="#ade73a"></stop>
    </linearGradient>
    <linearGradient id="Degradado_sin_nombre_54-2" data-name="Degradado sin nombre 54" x1="0" y1="14.46" x2="29.42" y2="14.46" xlink:href="#Degradado_sin_nombre_54"></linearGradient>
    <linearGradient id="Degradado_sin_nombre_54-3" data-name="Degradado sin nombre 54" x1="12.93" y1="25.11" x2="41.59" y2="25.11" xlink:href="#Degradado_sin_nombre_54"></linearGradient>
    <linearGradient id="Degradado_sin_nombre_54-4" data-name="Degradado sin nombre 54" x1="12.68" y1="24.98" x2="42.1" y2="24.98" xlink:href="#Degradado_sin_nombre_54"></linearGradient>
    <style>
      .cls-1, .cls-2, .cls-3, .cls-5 { fill: url(#Degradado_sin_nombre_54); }
      .cls-4 { fill: #ffffff; }
    </style>
  </defs>
  <g id="Layer_1" data-name="Layer 1">
    <g>
      <g>
        <g>
          <path class="cls-5" d="M28.91,28.41h-15.22c-4.06,0-7.36-1.27-9.64-3.8S.51,18.77.51,14.46s1.27-7.61,3.55-10.15C6.34,1.78,9.64.51,13.7.51h15.22v6.59h-15.22c-2.28,0-4.06.76-5.58,2.03s-2.03,3.04-2.03,5.33.76,4.06,2.03,5.33c1.52,1.27,3.3,2.03,5.58,2.03h15.22v6.59Z"></path>
          <path class="cls-1" d="M29.17,28.91h-15.47c-4.31,0-7.61-1.27-10.15-4.06-2.28-2.54-3.55-6.09-3.55-10.4S1.27,6.59,3.55,4.06C6.09,1.52,9.38,0,13.7,0h15.72v7.61h-15.72c-2.28,0-4.06.51-5.33,1.78-1.27,1.27-2.03,2.79-2.03,5.07s.76,3.8,2.03,5.07,3.04,2.03,5.33,2.03h15.72v7.36h-.25ZM13.7,1.01c-3.8,0-7.1,1.27-9.38,3.55-2.28,2.54-3.3,5.83-3.3,9.89s1.01,7.36,3.3,9.89c2.28,2.54,5.33,3.55,9.38,3.55h14.71v-5.58h-14.71c-2.54,0-4.31-.76-5.83-2.28-1.52-1.27-2.28-3.3-2.28-5.58s.76-4.31,2.28-5.83,3.55-2.28,5.83-2.28h14.71V1.01h-14.71Z"></path>
        </g>
        <g>
          <path class="cls-2" d="M13.19,11.16h15.22c4.06,0,7.36,1.27,9.64,3.8s3.55,5.83,3.55,10.15-1.27,7.61-3.55,10.15-5.58,3.8-9.64,3.8h-15.22v-6.59h15.22c2.28,0,4.06-.76,5.58-2.03,1.52-1.27,2.03-3.04,2.03-5.33s-.76-4.06-2.03-5.33c-1.52-1.52-3.3-2.03-5.83-2.03h-15.22v-6.59s.25,0,.25,0Z"></path>
          <path class="cls-3" d="M28.15,39.57h-15.47v-7.61h15.72c2.28,0,3.8-.76,5.33-1.78,1.27-1.27,2.03-2.79,2.03-5.07s-.76-3.8-2.03-5.07-3.04-2.03-5.33-2.03h-15.72v-7.61h15.72c4.31,0,7.61,1.27,10.15,4.06,2.54,2.54,3.55,6.09,3.55,10.65s-1.27,7.86-3.55,10.4c-2.79,2.79-6.09,4.06-10.4,4.06ZM13.7,38.55h14.71c3.8,0,7.1-1.27,9.38-3.55,2.28-2.54,3.3-5.83,3.3-9.89s-1.01-7.36-3.3-9.89c-2.28-2.54-5.33-3.55-9.38-3.55h-14.71v5.58h14.71c2.54,0,4.31.76,5.83,2.28s2.28,3.3,2.28,5.83-.76,4.31-2.28,5.83c-1.52,1.52-3.55,2.28-5.83,2.28h-14.71s0,5.07,0,5.07Z"></path>
        </g>
      </g>
      <g>
        <path class="cls-4" d="M55.54,8.62v8.12h17.75v7.36h-17.75v7.86h20.04v7.36h-28.15V1.27h28.15v7.36h-20.04Z"></path>
        <path class="cls-4" d="M115.65,1.27v37.79h-6.34l-19.78-23.08v23.08h-8.12V1.27h6.09l20.04,23.59V1.27s8.12,0,8.12,0Z"></path>
        <path class="cls-4" d="M148.88,31.96h-16.99l-3.04,7.36h-8.62L136.45,1.27h7.61l16.23,38.04h-8.62l-2.79-7.36ZM145.84,24.6l-5.58-13.95-5.58,13.95h11.16Z"></path>
        <path class="cls-4" d="M196.56,1.27l-16.99,38.04h-7.61L154.97,1.27h8.88l11.92,27.39,11.92-27.39h8.88Z"></path>
        <path class="cls-4" d="M208.73,1.27v37.79h-8.12V1.27h8.12Z"></path>
        <path class="cls-4" d="M242.21,31.96h-17.25l-3.04,7.36h-8.62L229.53,1.27h7.61l16.23,38.04h-8.62l-2.54-7.36ZM239.17,24.6l-5.58-13.95-5.58,13.95s11.16,0,11.16,0Z"></path>
      </g>
    </g>
  </g>
</svg>