<?xml version="1.0"?>
<svg id="Capa_1" data-name="Capa 1" xmlns="http://www.w3.org/2000/svg" viewBox="0 0 50 50">
  <defs>
    
  </defs>
  <path class="cls-1" d="M28.84.04c2.7-.28,5.17.81,6.96,2.78,3.78-1.09,7.18.67,8.79,4.16,1.24,2.66,2.73,6.41,3.65,9.2.83,2.5.64,3.73-.31,6.12-2.89,7.32-6.44,14.43-9.45,21.7-1.81,3.11-5.53,4.4-8.91,3.08-2.33,2.81-6.07,3.71-9.43,2.21-4.65-2.29-9.92-3.94-14.51-6.29-4.12-2.11-5.35-6.16-3.73-10.42,3.16-8.29,7.45-16.46,10.79-24.71.93-1.59,2.2-2.58,3.86-3.33,2.99-1.36,7.16-2.95,10.29-3.98.65-.21,1.3-.44,1.99-.51ZM29.28,3.42c-.5.06-1.05.27-1.53.43-2.93.99-7.33,2.64-10.07,3.98-.68.33-1.24.75-1.71,1.34-3.33,7.36-6.64,14.78-9.77,22.24-1.26,2.99-2.85,5.81.53,8.22,4.8,1.94,9.58,4.45,14.41,6.28,2.55.96,4.61.77,6.11-1.72l10.6-24.36c.46-1.38.39-2.18-.05-3.54-1.17-3.59-3.02-7.23-4.34-10.8-.84-1.41-2.55-2.25-4.18-2.07ZM37.47,6.11l3.84,9.71c.55,1.93.41,4-.45,5.82l-9.71,22.2c1.49.76,3.39-.07,4.27-1.39,2.95-6.95,6.2-13.8,9.04-20.8.73-1.79,1.07-2.42.42-4.38-1.05-3.19-2.61-6.42-3.83-9.56-.88-1.16-2.08-1.8-3.58-1.6Z"></path>
  <path class="cls-1" d="M14.49,26.47l4.25.55c-.45,1.43.32,2.32,1.6,2.81.83.32,2.42.48,2.33-.8-.08-1.17-2.74-2.59-3.6-3.38-1.59-1.46-2.37-3.38-1.44-5.47s3.18-2.62,5.34-2.44l.52-1.19,3.85,1.65-.42,1.23c1.56,1.15,2.55,3.27,2,5.2l-4.01-.46-.16-.14c.71-1.57-.99-3.05-2.52-2.51s-.22,1.95.49,2.55c1.96,1.66,4.59,2.81,4.29,5.92s-3.49,4.15-6.23,3.67l-.68,1.17-3.85-1.62.53-1.4c-.86-.5-1.54-1.5-1.89-2.41-.09-.24-.38-1.07-.38-1.25v-1.69Z"></path>
  <path class="cls-1" d="M29.16,5.81c1.8-.26,3.34,1.25,2.85,3.07-.76,2.82-5.37,2.4-4.88-1.07.13-.95,1.09-1.86,2.03-2Z"></path>
</svg>