<?xml version="1.0"?>
<svg id="Capa_1" data-name="Capa 1" xmlns="http://www.w3.org/2000/svg" viewBox="0 0 50 50">
  <defs>
    
  </defs>
  <path class="cls-1" d="M43.04,16.6H2.94v20.42c0,1.36,1.45,2.84,2.81,2.96l16.04.02c1.86.42,1.76,2.83-.21,3.05-5.09-.28-10.59.38-15.64,0-3.12-.23-5.52-2.4-5.94-5.51V8.47C.39,5.5,2.85,3.26,5.83,3.06h34.55c7.96,1.06,5.32,10.02,5.65,15.63-.32,1.06-1.68,1.43-2.5.65-.12-.11-.47-.67-.47-.79v-1.94ZM43.04,13.56v-4.88c0-1.07-1.68-2.59-2.78-2.57H5.83c-1.4.06-2.88,1.59-2.88,2.99v4.46h40.1Z"></path>
  <path class="cls-1" d="M43.54,22.72c5.02-.68,8.17,4.3,5.46,8.51-4.59,4.9-9.47,9.57-14.22,14.33-.38.27-.75.46-1.2.58-1.08.3-3.55.73-4.66.8-1.76.11-3.31-1.16-3.29-2.98,0-.91.6-4.08.86-5.02.12-.44.29-.77.56-1.12l13.79-13.81c.69-.58,1.81-1.16,2.71-1.28ZM44.07,25.66c-1.18.19-2.04,1.61-2.91,2.34l3.5,3.4c.65-.73,1.84-1.52,2.17-2.45.66-1.82-.85-3.59-2.76-3.29ZM28.66,44l4.3-.9,9.41-9.39-.05-.26-3.31-3.3-9.5,9.5-.84,4.36Z"></path>
  <path class="cls-1" d="M7.74,8.54c2.21-.45,2.17,3.02,0,2.58-1.32-.27-1.32-2.3,0-2.58Z"></path>
  <path class="cls-1" d="M13.72,8.87c1.19,1.19-.58,3.12-1.86,1.91s.64-3.13,1.86-1.91Z"></path>
  <path class="cls-1" d="M16.52,10.79c-1.09-1.04.26-3.02,1.7-2.06,1.56,1.03-.33,3.37-1.7,2.06Z"></path>
</svg>