<?xml version="1.0"?>
<svg id="Capa_1" xmlns="http://www.w3.org/2000/svg" version="1.1" viewBox="0 0 117 117">
  
  <defs>
    
  </defs>
  <path class="st0" d="M58.3,27.7c6.7-7.3,15.4-11.4,24.5-5s12.9,12.4,13.9,14.1c2.8,4.7,3.2,10.7.8,15.6-1.2,2.5-4.2,3.4-4.2,6.3,4.7-.3,10.1,3.2,12.2,7.3s2.4,22,1.5,27.9-6.6,11.9-14.2,12.8c-13.7,1.5-45,1.3-59,0-13.2-1.2-22.4-10.1-23.6-23.4s-1.1-41.8,0-57.1c.7-9,4-15.1,13.6-16.4s18.7-.6,23.5.4c8,1.7,12.2,9.8,11,17.6ZM48.1,19.9c-1.6-1.6-21.1-1.8-24.2-1.2s-4.1,2.4-4.5,4.5v60.9c2.4,17.2,25.4,18.4,29.7,1.9-.8-19.6,1.9-41.5.3-60.8s-.1-3.7-1.3-5.2ZM58.3,79.7c8.4-9.3,22.2-19.2,29.5-29s3.4-6.4,0-11-7.3-7.8-9-9c-9.3-6.5-14.2,4.3-20.5,9.5v39.5ZM54.3,97.7h40.5c.7,0,3.2-3.2,3.5-4.5.6-3.1.4-22.6-1.2-24.2-3.6-1.6-12-2.2-15.3-.3s-19.8,19.4-23,23-3,4.1-4.5,6Z"></path>
  <path class="st0" d="M34,77.9c4.7-.4,7,7.2,2.7,8.6-6.9,2.3-9-8.1-2.7-8.6Z"></path>
</svg>