<?xml version="1.0"?>
<svg id="Capa_1" xmlns="http://www.w3.org/2000/svg" xmlns:xlink="http://www.w3.org/1999/xlink" version="1.1" viewBox="0 0 50 31.7">
  
  <defs>
    
    <clipPath id="clippath">
      <path class="st0" d="M0,1.3c16.7,4.3,33.3-4.3,50,0,0,9.7,0,19.4,0,29.2-16.7-4.3-33.3,4.3-50,0C0,20.7,0,11,0,1.3Z"></path>
    </clipPath>
  </defs>
  <g class="st4">
    <path class="st1" d="M0,30.4c16.7,4.3,33.3-4.3,50,0,0-.7,0-1.5,0-2.2-16.7-4.3-33.3,4.3-50,0,0,.7,0,1.5,0,2.2Z"></path>
    <path class="st3" d="M0,28.2c16.7,4.3,33.3-4.3,50,0,0-.7,0-1.5,0-2.2-16.7-4.3-33.3,4.3-50,0,0,.7,0,1.5,0,2.2Z"></path>
    <path class="st1" d="M0,25.9c16.7,4.3,33.3-4.3,50,0,0-.7,0-1.5,0-2.2-16.7-4.3-33.3,4.3-50,0,0,.7,0,1.5,0,2.2Z"></path>
    <path class="st3" d="M0,23.7c16.7,4.3,33.3-4.3,50,0,0-.7,0-1.5,0-2.2-16.7-4.3-33.3,4.3-50,0,0,.7,0,1.5,0,2.2Z"></path>
    <path class="st1" d="M0,21.4c16.7,4.3,33.3-4.3,50,0,0-.7,0-1.5,0-2.2-16.7-4.3-33.3,4.3-50,0,0,.7,0,1.5,0,2.2Z"></path>
    <path class="st3" d="M0,19.2c16.7,4.3,33.3-4.3,50,0,0-.7,0-1.5,0-2.2-16.7-4.3-33.3,4.3-50,0,0,.7,0,1.5,0,2.2Z"></path>
    <path class="st1" d="M0,17c16.7,4.3,33.3-4.3,50,0,0-.7,0-1.5,0-2.2-16.7-4.3-33.3,4.3-50,0,0,.7,0,1.5,0,2.2Z"></path>
    <path class="st3" d="M0,14.7c16.7,4.3,33.3-4.3,50,0,0-.7,0-1.5,0-2.2-16.7-4.3-33.3,4.3-50,0,0,.7,0,1.5,0,2.2Z"></path>
    <path class="st1" d="M0,12.5c16.7,4.3,33.3-4.3,50,0,0-.7,0-1.5,0-2.2C33.3,5.9,16.7,14.6,0,10.2c0,.7,0,1.5,0,2.2Z"></path>
    <path class="st3" d="M0,10.2c16.7,4.3,33.3-4.3,50,0,0-.7,0-1.5,0-2.2C33.3,3.7,16.7,12.3,0,8c0,.7,0,1.5,0,2.2Z"></path>
    <path class="st1" d="M0,8c16.7,4.3,33.3-4.3,50,0,0-.7,0-1.5,0-2.2C33.3,1.4,16.7,10.1,0,5.7c0,.7,0,1.5,0,2.2Z"></path>
    <path class="st3" d="M0,5.7c16.7,4.3,33.3-4.3,50,0,0-.7,0-1.5,0-2.2C33.3-.8,16.7,7.8,0,3.5c0,.7,0,1.5,0,2.2Z"></path>
    <path class="st1" d="M0,3.5C16.7,7.8,33.3-.8,50,3.5c0-.7,0-1.5,0-2.2C33.3-3.1,16.7,5.6,0,1.3c0,.7,0,1.5,0,2.2Z"></path>
    <path class="st2" d="M0,17c7.6,2,15.2,1.2,22.8.3V1.5c-7.6,1-15.2,1.7-22.8-.3,0,5.2,0,10.5,0,15.7Z"></path>
    <path class="st3" d="M2.1,3.5c0,.2.1.4.2.6.2,0,.4,0,.6.1-.2,0-.3.2-.5.3,0,.2.1.4.2.6-.2-.2-.3-.3-.5-.5-.2,0-.3.2-.5.3,0-.2.1-.4.2-.6-.2-.2-.3-.3-.5-.5.2,0,.4,0,.6.1,0-.2.1-.4.2-.6Z"></path>
    <path class="st3" d="M2.1,6.1c0,.2.1.4.2.6.2,0,.4,0,.6.1-.2,0-.3.2-.5.3,0,.2.1.4.2.6-.2-.2-.3-.3-.5-.5-.2,0-.3.2-.5.3,0-.2.1-.4.2-.6-.2-.2-.3-.3-.5-.5.2,0,.4,0,.6.1,0-.2.1-.4.2-.6Z"></path>
    <path class="st3" d="M2.1,8.7c0,.2.1.4.2.6.2,0,.4,0,.6.1-.2,0-.3.2-.5.3,0,.2.1.4.2.6-.2-.2-.3-.3-.5-.5-.2,0-.3.2-.5.3,0-.2.1-.4.2-.6-.2-.2-.3-.3-.5-.5.2,0,.4,0,.6.1,0-.2.1-.4.2-.6Z"></path>
    <path class="st3" d="M2.1,11.3c0,.2.1.4.2.6.2,0,.4,0,.6.1-.2,0-.3.2-.5.3,0,.2.1.4.2.6-.2-.2-.3-.3-.5-.5-.2,0-.3.2-.5.3,0-.2.1-.4.2-.6-.2-.2-.3-.3-.5-.5.2,0,.4,0,.6.1,0-.2.1-.4.2-.6Z"></path>
    <path class="st3" d="M2.1,13.9c0,.2.1.4.2.6.2,0,.4,0,.6.1-.2,0-.3.2-.5.3,0,.2.1.4.2.6-.2-.2-.3-.3-.5-.5-.2,0-.3.2-.5.3,0-.2.1-.4.2-.6-.2-.2-.3-.3-.5-.5.2,0,.4,0,.6.1,0-.2.1-.4.2-.6Z"></path>
    <path class="st3" d="M3.9,5.2c0,.2.1.4.2.6.2,0,.4,0,.6,0-.2.1-.3.2-.5.3,0,.2.1.4.2.6-.2-.1-.3-.3-.5-.4-.2,0-.3.2-.5.3,0-.2.1-.4.2-.6-.2-.1-.3-.3-.5-.5.2,0,.4,0,.6.1,0-.2.1-.4.2-.6Z"></path>
    <path class="st3" d="M3.9,7.8c0,.2.1.4.2.6.2,0,.4,0,.6,0-.2.1-.3.2-.5.3,0,.2.1.4.2.6-.2-.1-.3-.3-.5-.4-.2,0-.3.2-.5.3,0-.2.1-.4.2-.6-.2-.1-.3-.3-.5-.4.2,0,.4,0,.6.1,0-.2.1-.4.2-.6Z"></path>
    <path class="st3" d="M3.9,10.4c0,.2.1.4.2.6.2,0,.4,0,.6,0-.2.1-.3.2-.5.3,0,.2.1.4.2.6-.2-.1-.3-.3-.5-.4-.2,0-.3.2-.5.3,0-.2.1-.4.2-.6-.2-.1-.3-.3-.5-.4.2,0,.4,0,.6.1,0-.2.1-.4.2-.6Z"></path>
    <path class="st3" d="M3.9,13c0,.2.1.4.2.6.2,0,.4,0,.6,0-.2.1-.3.2-.5.3,0,.2.1.4.2.6-.2-.1-.3-.3-.5-.4-.2,0-.3.2-.5.3,0-.2.1-.4.2-.6-.2-.1-.3-.3-.5-.4.2,0,.4,0,.6.1,0-.2.1-.4.2-.6Z"></path>
    <path class="st3" d="M5.7,4c0,.2.1.4.2.6.2,0,.4,0,.6,0-.2.1-.3.2-.5.3,0,.2.1.4.2.6-.2-.1-.3-.3-.5-.4-.2.1-.3.2-.5.3,0-.2.1-.4.2-.6-.2-.1-.3-.3-.5-.4.2,0,.4,0,.6,0,0-.2.1-.4.2-.6Z"></path>
    <path class="st3" d="M5.7,6.6c0,.2.1.4.2.6.2,0,.4,0,.6,0-.2.1-.3.2-.5.3,0,.2.1.4.2.6-.2-.1-.3-.3-.5-.4-.2.1-.3.2-.5.3,0-.2.1-.4.2-.6-.2-.1-.3-.3-.5-.4.2,0,.4,0,.6,0,0-.2.1-.4.2-.6Z"></path>
    <path class="st3" d="M5.7,9.2c0,.2.1.4.2.6.2,0,.4,0,.6,0-.2.1-.3.2-.5.3,0,.2.1.4.2.6-.2-.1-.3-.3-.5-.4-.2.1-.3.2-.5.3,0-.2.1-.4.2-.6-.2-.1-.3-.3-.5-.4.2,0,.4,0,.6,0,0-.2.1-.4.2-.6Z"></path>
    <path class="st3" d="M5.7,11.9c0,.2.1.4.2.6.2,0,.4,0,.6,0-.2.1-.3.2-.5.3,0,.2.1.4.2.6-.2-.1-.3-.3-.5-.4-.2.1-.3.2-.5.3,0-.2.1-.4.2-.6-.2-.1-.3-.3-.5-.4.2,0,.4,0,.6,0,0-.2.1-.4.2-.6Z"></path>
    <path class="st3" d="M5.7,14.5c0,.2.1.4.2.6.2,0,.4,0,.6,0-.2.1-.3.2-.5.3,0,.2.1.4.2.6-.2-.1-.3-.3-.5-.4-.2.1-.3.2-.5.3,0-.2.1-.4.2-.6-.2-.1-.3-.3-.5-.4.2,0,.4,0,.6,0,0-.2.1-.4.2-.6Z"></path>
    <path class="st3" d="M7.6,5.5c0,.2.1.4.2.6.2,0,.4,0,.6,0-.2.1-.3.2-.5.3,0,.2.1.4.2.6-.2-.1-.3-.3-.5-.4-.2.1-.3.2-.5.3,0-.2.1-.4.2-.6-.2-.1-.3-.3-.5-.4.2,0,.4,0,.6,0,0-.2.1-.4.2-.6Z"></path>
    <path class="st3" d="M7.6,8.2c0,.2.1.4.2.6.2,0,.4,0,.6,0-.2.1-.3.2-.5.3,0,.2.1.4.2.6-.2-.1-.3-.3-.5-.4-.2.1-.3.2-.5.3,0-.2.1-.4.2-.6-.2-.1-.3-.3-.5-.4.2,0,.4,0,.6,0,0-.2.1-.4.2-.6Z"></path>
    <path class="st3" d="M7.6,10.8c0,.2.1.4.2.6.2,0,.4,0,.6,0-.2.1-.3.2-.5.3,0,.2.1.4.2.6-.2-.1-.3-.3-.5-.4-.2.1-.3.2-.5.3,0-.2.1-.4.2-.6-.2-.1-.3-.3-.5-.4.2,0,.4,0,.6,0,0-.2.1-.4.2-.6Z"></path>
    <path class="st3" d="M7.6,13.4c0,.2.1.4.2.6.2,0,.4,0,.6,0-.2.1-.3.2-.5.3,0,.2.1.4.2.6-.2-.1-.3-.3-.5-.4-.2.1-.3.2-.5.3,0-.2.1-.4.2-.6-.2-.1-.3-.3-.5-.4.2,0,.4,0,.6,0,0-.2.1-.4.2-.6Z"></path>
    <path class="st3" d="M9.4,4.2c0,.2.1.4.2.6.2,0,.4,0,.6,0-.2.1-.3.2-.5.4,0,.2.1.4.2.6-.2-.1-.3-.2-.5-.4-.2.1-.3.2-.5.4,0-.2.1-.4.2-.6-.2-.1-.3-.3-.5-.4.2,0,.4,0,.6,0,0-.2.1-.4.2-.6Z"></path>
    <path class="st3" d="M9.4,6.8c0,.2.1.4.2.6.2,0,.4,0,.6,0-.2.1-.3.2-.5.4,0,.2.1.4.2.6-.2-.1-.3-.2-.5-.4-.2.1-.3.2-.5.4,0-.2.1-.4.2-.6-.2-.1-.3-.3-.5-.4.2,0,.4,0,.6,0,0-.2.1-.4.2-.6Z"></path>
    <path class="st3" d="M9.4,9.5c0,.2.1.4.2.6.2,0,.4,0,.6,0-.2.1-.3.2-.5.4,0,.2.1.4.2.6-.2-.1-.3-.2-.5-.4-.2.1-.3.2-.5.4,0-.2.1-.4.2-.6-.2-.1-.3-.3-.5-.4.2,0,.4,0,.6,0,0-.2.1-.4.2-.6Z"></path>
    <path class="st3" d="M9.4,12.1c0,.2.1.4.2.6.2,0,.4,0,.6,0-.2.1-.3.2-.5.4,0,.2.1.4.2.6-.2-.1-.3-.2-.5-.4-.2.1-.3.2-.5.4,0-.2.1-.4.2-.6-.2-.1-.3-.3-.5-.4.2,0,.4,0,.6,0,0-.2.1-.4.2-.6Z"></path>
    <path class="st3" d="M9.4,14.7c0,.2.1.4.2.6.2,0,.4,0,.6,0-.2.1-.3.2-.5.4,0,.2.1.4.2.6-.2-.1-.3-.2-.5-.4-.2.1-.3.2-.5.4,0-.2.1-.4.2-.6-.2-.1-.3-.3-.5-.4.2,0,.4,0,.6,0,0-.2.1-.4.2-.6Z"></path>
    <path class="st3" d="M11.2,5.6c0,.2.1.4.2.6.2,0,.4,0,.6,0-.2.1-.3.3-.5.4,0,.2.1.4.2.6-.2-.1-.3-.2-.5-.4-.2.1-.3.2-.5.4,0-.2.1-.4.2-.6-.2-.1-.3-.2-.5-.4.2,0,.4,0,.6,0,0-.2.1-.4.2-.6Z"></path>
    <path class="st3" d="M11.2,8.2c0,.2.1.4.2.6.2,0,.4,0,.6,0-.2.1-.3.3-.5.4,0,.2.1.4.2.6-.2-.1-.3-.2-.5-.4-.2.1-.3.2-.5.4,0-.2.1-.4.2-.6-.2-.1-.3-.2-.5-.4.2,0,.4,0,.6,0,0-.2.1-.4.2-.6Z"></path>
    <path class="st3" d="M11.2,10.9c0,.2.1.4.2.6.2,0,.4,0,.6,0-.2.1-.3.3-.5.4,0,.2.1.4.2.6-.2-.1-.3-.2-.5-.4-.2.1-.3.2-.5.4,0-.2.1-.4.2-.6-.2-.1-.3-.2-.5-.4.2,0,.4,0,.6,0,0-.2.1-.4.2-.6Z"></path>
    <path class="st3" d="M11.2,13.5c0,.2.1.4.2.6.2,0,.4,0,.6,0-.2.1-.3.3-.5.4,0,.2.1.4.2.6-.2-.1-.3-.2-.5-.4-.2.1-.3.2-.5.4,0-.2.1-.4.2-.6-.2-.1-.3-.2-.5-.4.2,0,.4,0,.6,0,0-.2.1-.4.2-.6Z"></path>
    <path class="st3" d="M13.1,4.2c0,.2.1.4.2.6.2,0,.4,0,.6,0-.2.1-.3.3-.5.4,0,.2.1.4.2.6-.2-.1-.3-.2-.5-.3-.2.1-.3.3-.5.4,0-.2.1-.4.2-.6-.2-.1-.3-.2-.5-.3.2,0,.4,0,.6,0,0-.2.1-.4.2-.6Z"></path>
    <path class="st3" d="M13.1,6.8c0,.2.1.4.2.6.2,0,.4,0,.6,0-.2.1-.3.3-.5.4,0,.2.1.4.2.6-.2-.1-.3-.2-.5-.3-.2.1-.3.3-.5.4,0-.2.1-.4.2-.6-.2-.1-.3-.2-.5-.3.2,0,.4,0,.6,0,0-.2.1-.4.2-.6Z"></path>
    <path class="st3" d="M13.1,9.4c0,.2.1.4.2.6.2,0,.4,0,.6,0-.2.1-.3.3-.5.4,0,.2.1.4.2.6-.2-.1-.3-.2-.5-.3-.2.1-.3.3-.5.4,0-.2.1-.4.2-.6-.2-.1-.3-.2-.5-.3.2,0,.4,0,.6,0,0-.2.1-.4.2-.6Z"></path>
    <path class="st3" d="M13.1,12c0,.2.1.4.2.6.2,0,.4,0,.6,0-.2.1-.3.3-.5.4,0,.2.1.4.2.6-.2-.1-.3-.2-.5-.3-.2.1-.3.3-.5.4,0-.2.1-.4.2-.6-.2-.1-.3-.2-.5-.4.2,0,.4,0,.6,0,0-.2.1-.4.2-.6Z"></path>
    <path class="st3" d="M13.1,14.7c0,.2.1.4.2.6.2,0,.4,0,.6,0-.2.1-.3.3-.5.4,0,.2.1.4.2.6-.2-.1-.3-.2-.5-.3-.2.1-.3.3-.5.4,0-.2.1-.4.2-.6-.2-.1-.3-.2-.5-.3.2,0,.4,0,.6,0,0-.2.1-.4.2-.6Z"></path>
    <path class="st3" d="M14.9,5.5c0,.2.1.4.2.6.2,0,.4,0,.6,0-.2.1-.3.3-.5.4,0,.2.1.4.2.6-.2-.1-.3-.2-.5-.3-.2.1-.3.3-.5.4,0-.2.1-.4.2-.6-.2-.1-.3-.2-.5-.3.2,0,.4,0,.6,0,0-.2.1-.4.2-.6Z"></path>
    <path class="st3" d="M14.9,8.1c0,.2.1.4.2.6.2,0,.4,0,.6,0-.2.1-.3.3-.5.4,0,.2.1.4.2.6-.2-.1-.3-.2-.5-.3-.2.1-.3.3-.5.4,0-.2.1-.4.2-.6-.2-.1-.3-.2-.5-.3.2,0,.4,0,.6,0,0-.2.1-.4.2-.6Z"></path>
    <path class="st3" d="M14.9,10.7c0,.2.1.4.2.6.2,0,.4,0,.6,0-.2.1-.3.3-.5.4,0,.2.1.4.2.6-.2-.1-.3-.2-.5-.3-.2.1-.3.3-.5.4,0-.2.1-.4.2-.6-.2-.1-.3-.2-.5-.3.2,0,.4,0,.6,0,0-.2.1-.4.2-.6Z"></path>
    <path class="st3" d="M14.9,13.3c0,.2.1.4.2.6.2,0,.4,0,.6,0-.2.1-.3.3-.5.4,0,.2.1.4.2.6-.2-.1-.3-.2-.5-.3-.2.1-.3.3-.5.4,0-.2.1-.4.2-.6-.2-.1-.3-.2-.5-.3.2,0,.4,0,.6,0,0-.2.1-.4.2-.6Z"></path>
    <path class="st3" d="M16.8,3.9c0,.2.1.4.2.6.2,0,.4,0,.6,0-.2.1-.3.3-.5.4,0,.2.1.4.2.6-.2-.1-.3-.2-.5-.3-.2.1-.3.3-.5.4,0-.2.1-.4.2-.6-.2-.1-.3-.2-.5-.3.2,0,.4,0,.6,0,0-.2.1-.4.2-.6Z"></path>
    <path class="st3" d="M16.8,6.6c0,.2.1.4.2.6.2,0,.4,0,.6,0-.2.1-.3.3-.5.4,0,.2.1.4.2.6-.2-.1-.3-.2-.5-.3-.2.1-.3.3-.5.4,0-.2.1-.4.2-.6-.2-.1-.3-.2-.5-.3.2,0,.4,0,.6,0,0-.2.1-.4.2-.6Z"></path>
    <path class="st3" d="M16.8,9.2c0,.2.1.4.2.6.2,0,.4,0,.6,0-.2.1-.3.3-.5.4,0,.2.1.4.2.6-.2-.1-.3-.2-.5-.3-.2.1-.3.3-.5.4,0-.2.1-.4.2-.6-.2-.1-.3-.2-.5-.3.2,0,.4,0,.6,0,0-.2.1-.4.2-.6Z"></path>
    <path class="st3" d="M16.8,11.8c0,.2.1.4.2.6.2,0,.4,0,.6,0-.2.1-.3.3-.5.4,0,.2.1.4.2.6-.2-.1-.3-.2-.5-.3-.2.1-.3.3-.5.4,0-.2.1-.4.2-.6-.2-.1-.3-.2-.5-.3.2,0,.4,0,.6,0,0-.2.1-.4.2-.6Z"></path>
    <path class="st3" d="M16.8,14.4c0,.2.1.4.2.6.2,0,.4,0,.6,0-.2.1-.3.3-.5.4,0,.2.1.4.2.6-.2-.1-.3-.2-.5-.3-.2.1-.3.3-.5.4,0-.2.1-.4.2-.6-.2-.1-.3-.2-.5-.3.2,0,.4,0,.6,0,0-.2.1-.4.2-.6Z"></path>
    <path class="st3" d="M18.6,5.1c0,.2.1.4.2.6.2,0,.4,0,.6,0-.2.1-.3.3-.5.4,0,.2.1.4.2.6-.2-.1-.3-.2-.5-.3-.2.1-.3.3-.5.4,0-.2.1-.4.2-.6-.2-.1-.3-.2-.5-.3.2,0,.4,0,.6,0,0-.2.1-.4.2-.6Z"></path>
    <path class="st3" d="M18.6,7.8c0,.2.1.4.2.6.2,0,.4,0,.6,0-.2.1-.3.3-.5.4,0,.2.1.4.2.6-.2-.1-.3-.2-.5-.3-.2.1-.3.3-.5.4,0-.2.1-.4.2-.6-.2-.1-.3-.2-.5-.3.2,0,.4,0,.6,0,0-.2.1-.4.2-.6Z"></path>
    <path class="st3" d="M18.6,10.4c0,.2.1.4.2.6.2,0,.4,0,.6,0-.2.1-.3.3-.5.4,0,.2.1.4.2.6-.2-.1-.3-.2-.5-.3-.2.1-.3.3-.5.4,0-.2.1-.4.2-.6-.2-.1-.3-.2-.5-.3.2,0,.4,0,.6,0,0-.2.1-.4.2-.6Z"></path>
    <path class="st3" d="M18.6,13c0,.2.1.4.2.6.2,0,.4,0,.6,0-.2.1-.3.3-.5.4,0,.2.1.4.2.6-.2-.1-.3-.2-.5-.3-.2.1-.3.3-.5.4,0-.2.1-.4.2-.6-.2-.1-.3-.2-.5-.3.2,0,.4,0,.6,0,0-.2.1-.4.2-.6Z"></path>
    <path class="st3" d="M20.4,3.6c0,.2.1.4.2.6.2,0,.4,0,.6,0-.2.1-.3.3-.5.4,0,.2.1.4.2.6-.2-.1-.3-.2-.5-.3-.2.1-.3.3-.5.4,0-.2.1-.4.2-.6-.2-.1-.3-.2-.5-.3.2,0,.4,0,.6,0,0-.2.1-.4.2-.6Z"></path>
    <path class="st3" d="M20.4,6.2c0,.2.1.4.2.6.2,0,.4,0,.6,0-.2.1-.3.3-.5.4,0,.2.1.4.2.6-.2-.1-.3-.2-.5-.3-.2.1-.3.3-.5.4,0-.2.1-.4.2-.6-.2-.1-.3-.2-.5-.3.2,0,.4,0,.6,0,0-.2.1-.4.2-.6Z"></path>
    <path class="st3" d="M20.4,8.8c0,.2.1.4.2.6.2,0,.4,0,.6,0-.2.1-.3.3-.5.4,0,.2.1.4.2.6-.2-.1-.3-.2-.5-.3-.2.1-.3.3-.5.4,0-.2.1-.4.2-.6-.2-.1-.3-.2-.5-.3.2,0,.4,0,.6,0,0-.2.1-.4.2-.6Z"></path>
    <path class="st3" d="M20.4,11.4c0,.2.1.4.2.6.2,0,.4,0,.6,0-.2.1-.3.3-.5.4,0,.2.1.4.2.6-.2-.1-.3-.2-.5-.3-.2.1-.3.3-.5.4,0-.2.1-.4.2-.6-.2-.1-.3-.2-.5-.3.2,0,.4,0,.6,0,0-.2.1-.4.2-.6Z"></path>
    <path class="st3" d="M20.4,14c0,.2.1.4.2.6.2,0,.4,0,.6,0-.2.1-.3.3-.5.4,0,.2.1.4.2.6-.2-.1-.3-.2-.5-.3-.2.1-.3.3-.5.4,0-.2.1-.4.2-.6-.2-.1-.3-.2-.5-.3.2,0,.4,0,.6,0,0-.2.1-.4.2-.6Z"></path>
  </g>
</svg>