<?xml version="1.0"?>
<svg id="Capa_1" data-name="Capa 1" xmlns="http://www.w3.org/2000/svg" viewBox="0 0 50 50">
  <path d="M33.88,3.83h-17.74c-7.71,0-12.3,4.59-12.3,12.3v17.72c0,7.73,4.59,12.32,12.3,12.32h17.72c7.71,0,12.3-4.59,12.3-12.3v-17.74c.02-7.71-4.57-12.3-12.28-12.3ZM25.01,33.21c-4.53,0-8.21-3.68-8.21-8.21s3.68-8.21,8.21-8.21,8.21,3.68,8.21,8.21-3.68,8.21-8.21,8.21ZM37.54,14.16c-.11.25-.25.49-.44.7-.21.19-.44.34-.7.44-.25.11-.53.17-.8.17-.57,0-1.1-.21-1.5-.61-.19-.21-.34-.44-.44-.7s-.17-.53-.17-.8.06-.55.17-.8c.11-.28.25-.49.44-.7.49-.49,1.23-.72,1.91-.57.15.02.28.06.4.13.13.04.25.11.38.19.11.06.21.17.32.25.19.21.34.42.44.7.11.25.17.53.17.8s-.06.55-.17.8Z"></path>
</svg>