<?xml version="1.0"?>
<svg id="Capa_1" xmlns="http://www.w3.org/2000/svg" version="1.1" viewBox="0 0 117 117">
  
  <defs>
    
  </defs>
  <path class="st0" d="M9.7,9.7c2.2-2.2,7.1-4,10.2-4.3,8-.9,25.9-.8,34,0s5.4,1,7.9,2.1l47.6,47.4c3,5.6,4,10.2,1,16.1s-33.1,35.2-37.1,37.9-11.1,4.5-17.3,1.4L7.1,61.1c-.9-2-1.6-4-1.8-6.2-.8-7.5-.8-34.1,1.5-40.5s1.9-3.8,2.8-4.7ZM19.1,14.6c-2.8.6-4.2,2.6-4.7,5.3-1,6.6-.8,25.9-.1,33,.1,1.4,0,2.9.8,4.2l43.2,43.8c2.4,1.9,5.8,3.3,8.8,1.7l34.3-33.7c2.2-3.3,2.4-5.9.4-9.4L57.1,15.2c-1.3-.8-2.8-.7-4.2-.8-6.1-.6-28.7-.9-33.8.3Z"></path>
  <path class="st0" d="M34.1,30.6c12.6-3.7,12.6,16.3,0,12.6-5.1-1.5-5.2-11,0-12.6Z"></path>
</svg>