<?xml version="1.0"?>
<svg id="Capa_1" data-name="Capa 1" xmlns="http://www.w3.org/2000/svg" viewBox="0 0 50 50">
  <defs>
    
  </defs>
  <path class="cls-1" d="M34.86,49.98c-2.82-.21-5.55-1.55-7.76-3.22H1.32C.54,46.63.08,46.13,0,45.35V1.42C.08.6.6.08,1.42,0l31.79.05c.37.05,1.07.75,1.07,1.08v20.94c6.72-.86,13.31,3.5,15.16,9.98.23.82.5,1.97.56,2.81v2.15l-.52,2.66c-1.38,4.92-5.44,8.84-10.44,9.97l-2.03.36c-.7-.04-1.45.05-2.15,0ZM31.35,2.93H2.93v40.9h21.48c-4.81-7.03-2.23-16.7,5.37-20.45.51-.25,1.07-.4,1.57-.68V2.93ZM35.04,24.93c-8.53.66-13.04,10.49-8.07,17.47,4.58,6.43,14.16,6.11,18.32-.59,4.79-7.72-1.21-17.59-10.25-16.89Z"></path>
  <path class="cls-1" d="M7.5,6.37l19.12-.03c.75.07,1.22.5,1.41,1.23-.18,2.59.26,5.55.01,8.1-.08.78-.55,1.28-1.32,1.41H7.76c-.75-.07-1.22-.5-1.41-1.23.18-2.59-.26-5.55-.01-8.1.07-.72.46-1.17,1.15-1.39ZM25.1,9.28h-15.82v4.88h15.82v-4.88Z"></path>
  <path class="cls-1" d="M8.28,20.43c.37-.07,1.74-.08,2.12-.02,1.63.25,1.68,2.74-.18,2.93-.69.07-2.12.09-2.64-.39-.83-.78-.41-2.29.71-2.52Z"></path>
  <path class="cls-1" d="M16.09,20.43c.37-.07,1.74-.08,2.12-.02,1.63.25,1.68,2.74-.18,2.93-.69.07-2.12.09-2.64-.39-.83-.78-.41-2.29.71-2.52Z"></path>
  <path class="cls-1" d="M23.9,20.43c.37-.07,1.74-.08,2.12-.02,1.63.25,1.68,2.74-.18,2.93-.69.07-2.12.09-2.64-.39-.83-.78-.41-2.29.71-2.52Z"></path>
  <path class="cls-1" d="M8.28,28.24c.37-.07,1.74-.08,2.12-.02,1.63.25,1.68,2.74-.18,2.93-.69.07-2.12.09-2.64-.39-.83-.78-.41-2.29.71-2.52Z"></path>
  <path class="cls-1" d="M16.09,28.24c.37-.07,1.74-.08,2.12-.02,1.63.25,1.68,2.74-.18,2.93-.69.07-2.12.09-2.64-.39-.83-.78-.41-2.29.71-2.52Z"></path>
  <path class="cls-1" d="M8.28,36.05c.37-.07,1.74-.08,2.12-.02,1.63.25,1.68,2.74-.18,2.93-.69.07-2.12.09-2.64-.39-.83-.78-.41-2.29.71-2.52Z"></path>
  <path class="cls-1" d="M16.09,36.05c.37-.07,1.74-.08,2.12-.02,1.63.25,1.68,2.74-.18,2.93-.69.07-2.12.09-2.64-.39-.83-.78-.41-2.29.71-2.52Z"></path>
  <path class="cls-1" d="M37.42,29.37c.06.1,1.51.5,1.92,1.25.59,1.06-.19,2.26-1.41,2.19-.83-.04-1-.85-2.12-.67-.48.08-1.02.56-.84,1.08.15.44,2.81,1.29,3.37,1.61,2.59,1.49,2.44,5.12.18,6.85-.2.16-1.05.53-1.08.58-.08.12-.04.53-.11.77-.3,1.03-1.76,1.34-2.47.55-.27-.3-.41-1.12-.48-1.18-.05-.04-1.04-.34-1.29-.46-.77-.38-1.48-.88-1.32-1.85.15-.91,1.02-1.41,1.89-1.15.78.23,1.09.71,2.14.7,1.38-.02,2.2-1.72.9-2.37s-2.95-.87-3.97-2.18c-1.2-1.53-.72-3.92.79-5.07.18-.14.88-.47.92-.54.08-.14.04-.43.12-.66.45-1.24,2.16-1.37,2.7-.21.11.25.14.7.17.75Z"></path>
</svg>