<?xml version="1.0"?>
<svg id="Capa_1" data-name="Capa 1" xmlns="http://www.w3.org/2000/svg" viewBox="0 0 50 50">
  <defs>
    
  </defs>
  <path class="cls-1" d="M23.52.05c3.34-.19,6.7.31,9.86,1.38,7.43-4.69,16.9,2.92,13.29,11.1,8.19,14.09.54,32.5-15.17,36.61C14.49,53.6-1.57,39.93.12,22.46c.1-1.07.77-3.26.73-4.06-.02-.36-.39-.99-.5-1.38C-.95,12.35,2.11,7.38,6.74,6.17c.59-.15,1.97-.21,2.33-.37.24-.11.99-.84,1.32-1.07C14.33,2,18.69.33,23.52.05ZM37.58,1.72c-3.79.34-7,3.87-6.75,7.73.19,3.01,4.58,8.57,6.61,10.88.12.13.87.95.94.94,2.02-2.4,4.17-4.84,5.76-7.57,1.27-2.19,2.1-3.88,1.43-6.48-.92-3.52-4.38-5.82-7.98-5.49ZM24.17,1.79c-3.09,1.04-4.91,4.76-5.94,7.65-.17.48-.81,1.99-.46,2.34.26.27,3.37.58,3.95.63.8.06,1.64.06,2.45.11V1.79ZM25.84,1.79v10.72l4.06-.31c-1.04-2.18-.87-4.5,0-6.71-.91-1.56-2.25-3.19-4.06-3.7ZM31.25,3.36l-1.15-.52.78,1.04.36-.52ZM19.8,2.94c-2.26.82-3.99,2.62-5.62,4.32l1.2.98,1.04,1.15c.62-1.31,1.07-2.68,1.77-3.96.47-.87,1.04-1.69,1.62-2.5ZM15.01,3.98c-1.31.53-2.55,1.29-3.64,2.18.44-.05.98.43,1.35.26l2.29-2.45ZM8.43,7.55c-3.79.34-7,3.87-6.75,7.73.19,3.01,4.58,8.57,6.61,10.88.12.13.87.95.94.94,2.02-2.4,4.17-4.84,5.76-7.57,1.27-2.19,2.1-3.88,1.43-6.48-.92-3.52-4.38-5.82-7.98-5.49ZM24.17,14.18l-5.93-.52c.39,1.9-.3,3.81-1.13,5.48-.25.5-.99,1.49-1.12,1.9-.06.19-.15,1.4-.15,1.62v1.51c.51.06.83-.46,1.21-.71,2.22-1.48,4.41-2.08,7.11-1.68v-7.6ZM34.16,24.18l-.36-5.63c-.59-.92-1.28-1.78-1.89-2.69-.24-.36-.94-1.72-1.13-1.89-.29-.26-1.93.07-2.4.1-.84.06-1.7.07-2.55.11v8.07c1.06.52,2.1,1.11,2.97,1.93h5.36ZM43.32,24.18h5c-.15-3.4-.99-6.77-2.55-9.79-.18-.03-.2.14-.28.24-.92,1.32-1.69,2.78-2.78,3.99.36,1.83.53,3.69.61,5.55ZM41.66,24.18l-.31-3.75-2.63,2.84-.71.03-2.28-2.35.1,3.23h5.83ZM4.49,24.18l-2.39-3.44c-.28,1.12-.33,2.29-.42,3.44h2.81ZM21.75,23.37c-3.79.34-7,3.87-6.75,7.73.19,3.01,4.58,8.57,6.61,10.88.12.13.87.95.94.94,2.02-2.4,4.17-4.84,5.76-7.57,1.27-2.19,2.1-3.88,1.43-6.48-.92-3.52-4.38-5.82-7.98-5.49ZM1.68,25.84c.23,5.17,2.08,10.24,5.48,14.14l2.53-1.29c-1.49-2.99-2.36-6.28-2.79-9.59-.08-.6-.02-1.65-.14-2.15-.09-.35-.69-.76-.86-1.12H1.68ZM14.18,25.84h-1.72l-2.71,3.12c-.33.31-.7.21-1.09.1.32,3.11,1.15,6.31,2.66,9.04l4.09-1.3c.1-.32-1.21-2.58-1.43-3.14-.78-2.02-.83-3.43-.26-5.52.22-.81.65-1.36.44-2.32ZM34.16,25.84h-3.96c.76,1.29,1.36,2.81,1.46,4.32.14,2.17-.88,4.14-1.87,5.98l3.06.42c.97-3.47,1.19-7.13,1.31-10.73ZM41.66,25.84h-5.83c-.07,3.69-.44,7.37-1.24,10.97l4.09,1.3c2.03-3.72,2.79-8.06,2.98-12.27ZM48.32,25.84h-5c-.15,4.43-1.03,8.88-3.01,12.86l2.53,1.29c3.39-3.9,5.25-8.98,5.48-14.14ZM25.84,41.61v6.61c1.73-.49,3.03-2.01,3.96-3.49,1.25-1.98,2.1-4.3,2.71-6.56l-3.68-.45-2.98,3.89ZM19.8,47.08c-1.92-2.51-3.06-5.48-3.95-8.49l-3.75,1c1.23,2.41,3.21,4.72,5.44,6.27.29.2,2.09,1.36,2.26,1.23ZM37.91,39.58l-3.75-1c-.91,3.05-2.05,6.09-4.05,8.6,3.35-1.49,6.13-4.38,7.81-7.6ZM15.01,46.04c-1.23-1.24-2.34-2.46-3.35-3.88-.2-.28-1.03-1.74-1.12-1.8-.3-.2-1.74.86-2.19.89,1.84,2.03,4.16,3.68,6.66,4.79ZM41.66,41.25c-.44-.05-1.88-1.09-2.19-.89-.09.06-.92,1.52-1.12,1.8-1.01,1.42-2.13,2.64-3.35,3.88,2.52-1.09,4.81-2.77,6.66-4.79ZM24.17,43.64c-.71.44-1.02,1.7-2.06,1.27l-3.88-4.34c1.17,2.94,2.7,6.55,5.93,7.65v-4.58Z"></path>
  <path class="cls-1" d="M37.68,3.39c7.92-.79,8.7,11.09,1.11,11.63-7.67.54-8.5-10.89-1.11-11.63ZM37.78,5.05c-5.2.6-4.56,8.71.91,8.3s4.8-8.96-.91-8.3Z"></path>
  <path class="cls-1" d="M8.53,9.21c7.92-.79,8.7,11.09,1.11,11.63-7.67.54-8.5-10.89-1.11-11.63ZM8.64,10.88c-5.2.6-4.56,8.71.91,8.3s4.8-8.96-.91-8.3Z"></path>
  <path class="cls-1" d="M21.86,25.04c7.92-.79,8.7,11.09,1.11,11.63s-8.5-10.89-1.11-11.63ZM21.96,26.7c-5.2.6-4.56,8.71.91,8.3,5.43-.41,4.8-8.96-.91-8.3Z"></path>
  <path class="cls-1" d="M38.09,8.37c.38-.08.83.04.99.42.12.29.14,2.75.06,3.13-.18.82-1.53.85-1.65-.18-.06-.54-.07-2.18,0-2.7.05-.31.28-.59.59-.66Z"></path>
  <path class="cls-1" d="M38.09,5.87c1.22-.27,1.43,1.42.47,1.62-1.22.27-1.43-1.42-.47-1.62Z"></path>
  <path class="cls-1" d="M8.94,14.2c.38-.08.83.04.99.42.12.29.14,2.75.06,3.13-.18.82-1.53.85-1.65-.18-.06-.54-.07-2.18,0-2.7.05-.31.28-.59.59-.66Z"></path>
  <path class="cls-1" d="M8.94,11.7c1.22-.27,1.43,1.42.47,1.62-1.22.27-1.43-1.42-.47-1.62Z"></path>
  <path class="cls-1" d="M22.27,30.03c.38-.08.83.04.99.42.12.29.14,2.75.06,3.13-.18.82-1.53.85-1.65-.18-.06-.54-.07-2.18,0-2.7.05-.31.28-.59.59-.66Z"></path>
  <path class="cls-1" d="M22.27,27.53c1.22-.27,1.43,1.42.47,1.62-1.22.27-1.43-1.42-.47-1.62Z"></path>
</svg>