<?xml version="1.0"?>
<svg id="Capa_1" data-name="Capa 1" xmlns="http://www.w3.org/2000/svg" viewBox="0 0 50 50">
  <defs>
    
  </defs>
  <path class="cls-1" d="M26.57,0l2.56.32c20.62,3.56,28.25,29.43,12.32,43.51C26.59,56.96,2.79,47.88.24,28.34c-.08-.59-.06-1.23-.21-1.79.04-1.03-.06-2.09,0-3.12C.75,11.03,11.06.73,23.45,0h3.12ZM24.11,2.27C6.3,3.06-3.91,23.19,6.35,37.95c9.23,13.29,29.17,12.92,37.83-.76,9.48-14.97-1.01-34.26-18.44-34.94l-1.63.03Z"></path>
  <path class="cls-1" d="M26.8,34.82c.73.73,2.7.38,3.58.03l-.39,1.41c-1.97.81-4.18,1.66-6.34,1.08-5.81-1.59.08-9.51-.49-13.08-.27-1.66-2.73-1.07-3.8-.64.13-.43.19-1.31.55-1.55,2.31-.95,5.98-2.17,7.94.03,1.8,2.03-.36,6.73-.95,9.11-.22.87-.79,2.9-.09,3.6Z"></path>
  <path class="cls-1" d="M26.94,12.52c4.04-.55,5.21,4.68,1.49,5.69-4.37,1.19-5.8-5.1-1.49-5.69Z"></path>
</svg>