<?xml version="1.0"?>
<svg id="Capa_1" data-name="Capa 1" xmlns="http://www.w3.org/2000/svg" viewBox="0 0 50 50">
  <defs>
    
  </defs>
  <path class="cls-1" d="M26.57,0l2.56.32c21.26,3.63,28.48,30.96,11.19,44.43C25.17,56.57,2.71,47.28.24,28.35c-.08-.59-.06-1.23-.21-1.79.04-1.03-.06-2.09,0-3.12C.75,11.03,11.06.73,23.45,0h3.12ZM23.14,2.57C7.74,3.64-1.83,20.28,4.53,34.3c7.46,16.43,30.54,17.77,39.79,2.24C53.75,20.7,41.36,1.29,23.14,2.57Z"></path>
  <path class="cls-1" d="M18.02,35.31c-.33-.32-.5-.82-.53-1.28V15.87c.09-1.29,1.47-2.12,2.63-1.46l13.76,9.18c.95.64.94,2.18,0,2.81l-13.82,9.22c-.66.36-1.52.2-2.05-.31ZM20.04,17.38v15.23l11.42-7.66-11.42-7.57Z"></path>
</svg>