<?xml version="1.0"?>
<svg id="Capa_1" xmlns="http://www.w3.org/2000/svg" version="1.1" viewBox="0 0 50 50">
  
  <path d="M39.3,50c-5.3,0-10.4-1-15.3-3.1-4.7-2-8.9-4.8-12.5-8.4s-6.4-7.8-8.4-12.5C1,21.2,0,16,0,10.7s0-1.9.1-2.9c0-1.2.2-2.1.7-3,.5-.8,1.2-1.5,2.1-1.9,1-.5,1.9-.5,3.2-.5h6.7c1.1,0,1.9,0,2.7.3.7.3,1.4.7,1.9,1.3.6.7.8,1.4,1.2,2.4l2.8,7.6c.4,1.2.7,2,.7,3,0,.9-.4,1.7-.9,2.4-.6.8-1.3,1.3-2.4,1.9l-1.4.8c1.2,2.1,2.7,4.1,4.4,5.8,1.8,1.8,3.7,3.2,5.8,4.4l.8-1.4c.7-1.1,1.1-1.9,1.9-2.4.7-.5,1.6-.8,2.4-.9,1,0,1.8.2,3,.7l7.6,2.8c1.1.4,1.8.6,2.4,1.2.6.5,1,1.2,1.3,1.9.3.8.3,1.6.3,2.7v6.7c0,1.3,0,2.3-.5,3.2-.4.8-1.1,1.6-1.9,2.1-.9.5-1.8.6-3,.7-1,0-1.9.1-2.9.1ZM4.9,7.2c0,.2,0,.6,0,1,0,.8,0,1.7,0,2.6,0,4.7.9,9.2,2.7,13.4,1.7,4.1,4.2,7.8,7.4,11,3.2,3.2,6.9,5.7,11,7.4,4.3,1.8,8.8,2.7,13.4,2.7s1.7,0,2.6,0c.4,0,.8,0,1,0,0-.2,0-.7,0-1.2v-6.7c0-.4,0-.8,0-1-.2,0-.6-.2-.9-.4l-7.6-2.8c-.4-.2-.9-.3-1.1-.4-.1.2-.4.6-.6,1l-2,3.3c-.6,1-1.9,1.4-3,.9-3.4-1.5-6.5-3.7-9.1-6.3-2.7-2.7-4.8-5.7-6.3-9.1-.5-1.1,0-2.4.9-3l3.3-2c.4-.2.8-.5,1-.6,0-.2-.2-.7-.4-1.1l-2.8-7.6c-.1-.4-.3-.7-.4-.9-.2,0-.6,0-1,0h-6.7c-.4,0-.9,0-1.2,0ZM42.8,45.2h0s0,0,0,0ZM42.8,45.1h0s0,0,0,0ZM42.9,45s0,0,0,0c0,0,0,0,0,0ZM42.9,36.2s0,0,0,0ZM42.8,36.1s0,0,0,0c0,0,0,0,0,0ZM33.1,32.7s0,0,0,0c0,0,0,0,0,0ZM17.3,16.9s0,0,0,0c0,0,0,0,0,0ZM4.8,7.2s0,0,0,0c0,0,0,0,0,0ZM4.9,7.2s0,0,0,0c0,0,0,0,0,0ZM13.9,7.2s0,0,0,0c0,0,0,0,0,0ZM5,7.1s0,0,0,0c0,0,0,0,0,0ZM38.1,23.7c-1.1,0-2.1-.8-2.3-1.9-.4-1.9-1.3-3.6-2.6-4.9-1.3-1.3-3-2.2-4.9-2.6-1.3-.3-2.1-1.5-1.9-2.8.3-1.3,1.5-2.1,2.8-1.9,2.8.5,5.3,1.9,7.4,3.9,2,2,3.4,4.6,3.9,7.4.3,1.3-.6,2.5-1.9,2.8-.2,0-.3,0-.5,0ZM47.6,23.7c-1.2,0-2.2-.9-2.4-2.1-.5-4.3-2.4-8.3-5.5-11.4-3-3-7.1-5-11.4-5.5-1.3-.1-2.2-1.3-2.1-2.6.1-1.3,1.3-2.2,2.6-2.1,5.3.6,10.4,3,14.2,6.8,3.8,3.8,6.2,8.8,6.8,14.2.1,1.3-.8,2.5-2.1,2.6,0,0-.2,0-.3,0Z"></path>
</svg>