<?xml version="1.0" encoding="utf-8"?>
<!-- Generator: Adobe Illustrator 26.5.0, SVG Export Plug-In . SVG Version: 6.00 Build 0)  -->
<svg version="1.1" id="Layer_1" xmlns="http://www.w3.org/2000/svg" xmlns:xlink="http://www.w3.org/1999/xlink" x="0px" y="0px"
	 viewBox="0 0 250 150" style="enable-background:new 0 0 250 150;" xml:space="preserve">
<style type="text/css">
	.st0{fill:#757575;}
	.st1{fill-rule:evenodd;clip-rule:evenodd;fill:#757575;}
	.st2{fill:#F9AB00;}
	.st3{fill:#E37400;}
</style>
<g>
	<g>
		<path class="st0" d="M100,83.2l4.5,11.6h-8.6L100,83.2L100,83.2z M98.3,79.3l-9.7,25.5h3.6l2.5-6.9h10.9l2.5,6.9h3.6l-9.7-25.5
			H98.3L98.3,79.3z M150.8,104.9h3.4V79.3h-3.4V104.9L150.8,104.9z M116.6,89.9c1.1-1.6,3.4-3,5.5-3c4.5,0,6.6,3,6.6,7.5v10.9h-3.4
			V94.9c0-3.6-2-5-4.5-5c-2.8,0-4.7,2.8-4.7,5.3v9.7h-3.4V87.1h3.4L116.6,89.9L116.6,89.9z M131.6,99.6c0-3.9,3.6-6.1,7.8-6.1
			c2.5,0,4.1,0.5,4.7,1.1V94c0-2.8-2.2-4.1-4.5-4.1c-2,0-3.6,0.9-4.1,2.5l-3-1.4c0.5-1.6,2.8-4.1,7.2-4.1c4.1,0,7.8,2.5,7.8,7.5
			v10.5h-3v-2.5h-0.3c-0.9,1.4-2.8,3-5.9,3C134.7,105.4,131.6,103.2,131.6,99.6 M144.1,97.4c0,0-1.4-1.1-4.1-1.1
			c-3.4,0-4.7,2-4.7,3.4c0,2,2,2.8,3.6,2.8C141.3,102.4,144.1,100.1,144.1,97.4"/>
		<path class="st1" d="M158.8,112.6l3.9-9.1l-6.9-16.1h3.4l5.3,12.2l5.3-12.2h3.4l-10.9,25.3L158.8,112.6L158.8,112.6z M207.7,93.2
			c-0.9-2.2-2.8-3.6-4.7-3.6c-2.8,0-5.3,2.5-5.3,6.1c0,3.6,2.5,6.1,5.3,6.1c2,0,3.9-1.4,4.7-3.4l2.8,1.6c-1.4,3-4.1,5-7.5,5
			c-4.7,0-8.6-4.1-8.6-9.5c0-5.5,3.9-9.5,8.6-9.5c3.4,0,6.1,2,7.5,5L207.7,93.2L207.7,93.2z"/>
		<path class="st0" d="M219.7,105.4c4.5,0,6.6-2.5,6.6-5.5c0-6.6-9.7-4.1-9.7-8c0-1.4,1.1-2.2,3-2.2c1.9,0,3.9,0.9,4.7,2.2l2-2
			c-1.1-1.4-4.1-3.4-6.9-3.4c-4.1,0-6.4,2.5-6.4,5.5c0,6.4,10,4.1,10,7.5c0,1.6-1.1,2.8-3.4,2.8c-2.2,0-3.4-1.4-4.5-2.8l-2.5,2
			C214.4,103.2,216.9,105.4,219.7,105.4L219.7,105.4z M188.1,104.9h3.4V87.1h-3.4V104.9z"/>
		<path class="st1" d="M189.4,78.5c1.4,0,2.2,1.1,2.2,2.2c0,1.4-1.1,2.2-2.2,2.2s-2.2-1.1-2.2-2.2S188.3,78.5,189.4,78.5z
			 M184.7,102.1l0.5,2.5h-3.3c-3,0-4.5-2.2-4.5-5.5v-8.6h-3.4v-3.4h3.4v-5.3h3.4v5.3h3.9v3.4h-3.9v9.1
			C180.8,102.1,182.7,102.1,184.7,102.1L184.7,102.1z"/>
		<path class="st0" d="M105.4,51.1v4.1h9.7c-0.3,2.2-1.1,3.9-2.2,5c-1.4,1.4-3.6,3-7.5,3c-5.9,0-10.5-4.7-10.5-10.9
			c0-5.9,4.7-10.9,10.5-10.9c3.4,0,5.5,1.4,7.2,2.8l2.8-2.8c-2.5-2.2-5.5-4.1-10-4.1c-8,0-15,6.6-15,14.7s6.9,14.7,15,14.7
			c4.5,0,7.8-1.4,10.3-4.1c2.8-2.8,3.6-6.4,3.6-9.5c0-0.9,0-2-0.3-2.5h-13.6V51.1z M130.2,47.7c-5.3,0-9.5,3.9-9.5,9.5
			s4.1,9.5,9.5,9.5c5.2,0.1,9.4-4.1,9.5-9.3c0-0.1,0-0.1,0-0.2C139.6,51.6,135.4,47.7,130.2,47.7z M130.2,63c-2.8,0-5.3-2.5-5.3-5.9
			c0-3.4,2.5-5.8,5.3-5.8c2.8,0,5.3,2.2,5.3,5.9S132.9,63,130.2,63L130.2,63z M175.7,49.7c-1.1-1.1-2.8-2.2-5.3-2.2
			c-4.7,0-8.9,4.1-8.9,9.5s4.1,9.5,8.9,9.5c2.2,0,4.1-1.1,5-2.2h0.3v1.4c0,3.6-2,5.5-5,5.5c-2.5,0-4.1-2-4.7-3.4l-3.6,1.4
			c1.1,2.5,3.9,5.5,8.4,5.5c5,0,9.1-2.8,9.1-10V47.4H176v2.2H175.7z M171,63c-2.8,0-5-2.5-5-5.9c0-3.4,2.2-5.9,5-5.9s5,2.5,5,5.9
			C176,60.5,173.7,63,171,63z M150.7,47.7c-5.3,0-9.5,3.9-9.5,9.5s4.1,9.5,9.5,9.5c5.2,0.1,9.4-4.1,9.5-9.3c0-0.1,0-0.1,0-0.2
			C160.5,51.6,156,47.7,150.7,47.7z M150.7,63c-2.8,0-5.3-2.5-5.3-5.9c0-3.4,2.5-5.9,5.3-5.9c2.8,0,5.3,2.2,5.3,5.9
			S153.5,63,150.7,63z M183,37.7h4.1v28.9H183V37.7z M198.6,63c-2.2,0-3.6-1.1-4.7-2.8l12.8-5.3l-0.5-1.1c-0.9-2.2-3.4-6.1-8-6.1
			c-5,0-8.9,3.9-8.9,9.5c-0.1,5.2,4.1,9.4,9.3,9.5c0.1,0,0.1,0,0.2,0c4.5,0,6.9-2.8,8-4.1l-3.4-2.2C202.1,61.8,200.7,63,198.6,63
			L198.6,63z M198.2,51.3c1.6,0,3,0.9,3.6,2.2l-8.6,3.6C193.2,53,196.1,51.3,198.2,51.3z"/>
	</g>
	<g transform="matrix(.198617 0 0 .198616 29.128442 -18.08775)">
		<path class="st2" d="M177.1,326.7v245.7c0,27.5,19,42.8,39.1,42.8c18.6,0,39.1-13,39.1-42.8V328.5c0-25.2-18.6-41-39.1-41
			S177.1,304.9,177.1,326.7z"/>
		<g>
			<path class="st3" d="M74.8,451.4v121c0,27.5,19,42.8,39.1,42.8c18.6,0,39.1-13,39.1-42.8V453.2c0-25.2-18.6-41-39.1-41
				S74.8,429.7,74.8,451.4z"/>
			
				<ellipse transform="matrix(2.001836e-03 -1 1 2.001836e-03 -564.6563 586.4697)" class="st3" cx="11.5" cy="576.1" rx="7.8" ry="7.8"/>
		</g>
	</g>
</g>
</svg>
