<?xml version="1.0" encoding="utf-8"?>
<!-- Generator: Adobe Illustrator 26.2.1, SVG Export Plug-In . SVG Version: 6.00 Build 0)  -->
<svg version="1.1" id="Layer_1" xmlns="http://www.w3.org/2000/svg" xmlns:xlink="http://www.w3.org/1999/xlink" x="0px" y="0px"
	 viewBox="0 0 250 150" style="enable-background:new 0 0 250 150;" xml:space="preserve">
<style type="text/css">
	.st0{fill-rule:evenodd;clip-rule:evenodd;fill:#100F0D;}
	.st1{fill-rule:evenodd;clip-rule:evenodd;fill:#231F20;}
</style>
<g>
	<g>
		<path class="st0" d="M114.9,82.5c-1.7,0.4-2.5-0.1-2.5-1.2c0-1.5,1.6-2.1,3.8-2.1c1,0,1.9,0.1,1.9,0.1
			C118,79.9,116.6,82.1,114.9,82.5z M116.5,67.5c-5.3,0-9.1,2-9.1,2v5.7c0,0,4.2-2.4,7.6-2.4c2.7,0,3.1,1.5,2.9,2.7
			c0,0-0.8-0.2-3.2-0.2c-5.6,0-8.5,2.6-8.5,6.7c0,3.9,3.2,5.5,5.9,5.5c3.9,0,5.7-2.6,6.2-3.9c0.4-0.9,0.4-1.5,0.8-1.5
			c0.4,0,0.3,0.4,0.2,1.3c0,1.5,0,2.7,0.3,3.6h5.2v-9.4C124.9,71.8,122.8,67.5,116.5,67.5"/>
		<path class="st0" d="M150.9,77.5c0-1.7,1.6-3.3,4.5-3.3c3.2,0,5.8,1.5,6.3,1.9v-6.6c0,0-2-2-7-2c-5.2,0-9.6,3.1-9.6,9.7
			c0,6.6,4,10.3,9.6,10.3c4.4,0,7-2.4,7-2.4v-6.3c-0.8,0.5-3.1,2.1-6.3,2.1C152.1,80.8,150.9,79.3,150.9,77.5L150.9,77.5z
			 M81.1,67.9c0,0,0.3,1.4-0.1,3.3c-0.2,0.9-0.6,1.8-0.1,1.8c0.3,0,0.3-0.3,0.8-1.3c0.7-1.5,2-4.2,5.2-4.2c3,0,4.5,1.8,5,3.6
			c0.4,1.3,0,1.9,0.5,1.9c0.3,0,0.4-0.7,0.8-1.5c0.7-1.5,2.2-3.9,5.2-3.9c4.6,0,6.4,3.3,6.4,8.3V87h-6.8V76.7c0-1.7-0.3-3.4-1.9-3.4
			c-1.5,0-2.1,2.6-2.1,4.2V87h-7V76.7c0-2.2-0.3-3.4-1.9-3.4c-1.3,0-2.1,2.4-2.1,4.2V87h-6.9V67.9L81.1,67.9L81.1,67.9z M127.2,68
			c0,0,1.2,0.7,3.5,0.7c2.3,0,3.5-0.7,3.5-0.7V87h-6.9V68z M184.4,68c0,0,1.2,0.7,3.5,0.7c2.3,0,3.5-0.7,3.5-0.7V87h-6.9V68z
			 M143.3,62.2V87h-6.9V62.2H143.3z M170,62.2c0,0,0.3,0.7,0.3,2.8c0,3.1-0.7,5.7-1,6.7c-0.2,0.5-0.5,1.3,0,1.3c0.3,0,0.4-0.4,0.7-1
			c0.3-0.7,1.8-4.5,5.8-4.5c5.5,0,6.3,4.5,6.3,9.4V87h-6.9V76.5c0-2.2-0.5-3.2-1.9-3.2c-1.7,0-2.4,2.7-2.4,4.2V87H164V62.2L170,62.2
			L170,62.2z M198.7,67.9c0,0,0.3,1.4-0.1,3.3c-0.2,0.9-0.6,1.8-0.1,1.8c0.3,0,0.3-0.3,0.8-1.3c0.6-1.5,2-4.2,5.2-4.2
			c3.2,0,4.4,1.9,5,3.6c0.3,1.2,0,1.9,0.5,1.9c0.3,0,0.4-0.7,0.8-1.5c0.7-1.5,2.2-3.9,5.2-3.9c4.6,0,6.4,3.3,6.4,8.3V87h-6.8V76.7
			c0-1.7-0.3-3.4-1.9-3.4c-1.5,0-2.1,2.6-2.1,4.2V87h-7V76.7c0-2.2-0.3-3.4-1.9-3.4c-1.3,0-2.1,2.4-2.1,4.2V87h-6.9V67.9L198.7,67.9
			L198.7,67.9z M130.6,62c-2.3,0-4.2,1.2-4.2,2.8c0,1.5,1.9,2.8,4.2,2.8c2.3,0,4.2-1.2,4.2-2.8C134.9,63.2,133,62,130.6,62z
			 M187.8,62c-2.3,0-4.2,1.2-4.2,2.8c0,1.5,1.9,2.8,4.2,2.8c2.3,0,4.2-1.2,4.2-2.8C192.1,63.2,190.2,62,187.8,62z"/>
		<path class="st0" d="M234.1,82.9c-1.6,0-2.8-2-2.8-4.8c0-2.7,1.2-4.8,2.7-4.8c1.9,0,2.7,1.8,2.7,4.8
			C236.8,81.3,236.1,82.9,234.1,82.9L234.1,82.9z M236,67.5c-3.6,0-5.2,2.7-5.9,4.2c-0.5,1-0.4,1.3-0.8,1.3c-0.5,0-0.1-0.8,0.1-1.8
			c0.4-1.9,0.1-3.3,0.1-3.3h-5.1v24.3h6.9v-7.7c0.8,1.4,2.3,2.9,4.7,2.9c5,0,7.5-4.2,7.5-10C243.7,71,240.6,67.5,236,67.5"/>
	</g>
	<g>
		<path class="st1" d="M51.6,73.2c0.5-0.1,0.9-0.1,1.3,0c0.2-0.5,0.3-1.5,0.1-2.5c-0.3-1.5-0.7-2.4-1.6-2.3
			c-0.9,0.1-0.9,1.2-0.6,2.8C50.9,72.1,51.2,72.8,51.6,73.2"/>
		<path class="st1" d="M44,74.4c0.6,0.3,1,0.5,1.2,0.3c0.1-0.1,0.1-0.3-0.1-0.5c-0.3-0.5-1-1-1.6-1.3c-1.4-0.6-3.1-0.4-4.4,0.5
			c-0.4,0.3-0.8,0.7-0.8,1c0,0.1,0.1,0.1,0.2,0.2c0.4,0,1.6-0.6,3-0.7C42.5,73.9,43.3,74.2,44,74.4"/>
		<path class="st1" d="M42.7,75.2c-0.8,0.1-1.3,0.4-1.6,0.7c-0.2,0.2-0.4,0.5-0.4,0.6c0,0.1,0,0.1,0.1,0.2c0,0,0.1,0.1,0.1,0.1
			c0.2,0,0.6-0.2,0.6-0.2c1.2-0.4,1.9-0.4,2.7-0.3c0.4,0,0.6,0.1,0.7-0.1c0,0,0.1-0.1,0-0.3C44.7,75.6,43.8,75,42.7,75.2"/>
		<path class="st1" d="M49,77.9c0.6,0.3,1.2,0.2,1.4-0.2s-0.1-1-0.7-1.2c-0.6-0.3-1.2-0.2-1.4,0.2C48.1,77,48.4,77.6,49,77.9"/>
		<path class="st1" d="M52.6,74.7c-0.5,0-0.8,0.5-0.8,1.1c0,0.6,0.4,1.1,0.8,1.1c0.5,0,0.8-0.5,0.8-1.1
			C53.4,75.2,53.1,74.7,52.6,74.7"/>
		<path class="st1" d="M22,86c-0.1-0.1-0.3-0.1-0.5-0.1c-0.1,0-0.3,0.1-0.4,0.1c-0.3,0-0.6-0.1-0.8-0.4c-0.2-0.3-0.2-0.8,0-1.3
			l0.1-0.2c0.4-0.8,1-2.2,0.3-3.5c-0.5-1-1.4-1.6-2.4-1.7c-1-0.1-2,0.2-2.6,0.9c-1,1.1-1.2,2.6-1,3.2c0.1,0.2,0.2,0.3,0.3,0.3
			c0.2,0,0.4-0.1,0.6-0.5l0-0.1c0.1-0.2,0.2-0.6,0.4-1c0.3-0.4,0.7-0.7,1.1-0.8c0.5-0.1,1,0,1.4,0.3c0.7,0.5,1,1.3,0.7,2.2
			c-0.2,0.4-0.4,1.2-0.4,1.9c0.1,1.4,0.9,1.9,1.7,2c0.7,0,1.2-0.4,1.4-0.7C22.1,86.1,22,86,22,86"/>
		<path class="st1" d="M28.9,61c2.4-2.8,5.3-5.1,7.9-6.5c0.1,0,0.2,0.1,0.1,0.1c-0.2,0.4-0.6,1.2-0.7,1.8c0,0.1,0.1,0.2,0.2,0.1
			c1.6-1.1,4.5-2.3,7-2.5c0.1,0,0.2,0.1,0.1,0.2c-0.4,0.3-0.8,0.7-1.1,1.1c-0.1,0.1,0,0.2,0.1,0.2c1.8,0,4.2,0.6,5.8,1.5
			c0.1,0.1,0,0.3-0.1,0.2c-2.4-0.6-6.4-1-10.6,0c-3.7,0.9-6.5,2.3-8.6,3.8C29,61.3,28.8,61.1,28.9,61L28.9,61z M40.8,87.7L40.8,87.7
			L40.8,87.7L40.8,87.7z M50.6,88.8c0.1,0,0.1-0.1,0.1-0.2c0-0.1-0.1-0.2-0.2-0.2c0,0-5.1,0.8-9.9-1c0.5-1.7,1.9-1.1,4-0.9
			c3.8,0.2,7.2-0.3,9.7-1c2.2-0.6,5-1.9,7.2-3.6c0.7,1.6,1,3.5,1,3.5s0.6-0.1,1.1,0.2c0.5,0.3,0.8,0.9,0.6,2.4
			c-0.5,2.8-1.7,5.1-3.7,7.2c-1.2,1.3-2.7,2.5-4.4,3.3c-0.9,0.5-1.9,0.9-2.9,1.2c-7.6,2.5-15.4-0.2-17.9-6.1
			c-0.2-0.4-0.4-0.9-0.5-1.4c-1.1-3.9-0.2-8.5,2.7-11.4v0c0.2-0.2,0.4-0.4,0.4-0.7c0-0.2-0.1-0.5-0.3-0.6c-1-1.4-4.4-3.9-3.7-8.7
			c0.5-3.4,3.5-5.8,6.3-5.7l0.7,0c1.2,0.1,2.3,0.2,3.3,0.3c1.7,0.1,3.2-0.2,4.9-1.6c0.6-0.5,1.1-0.9,1.9-1.1c0.1,0,0.3-0.1,0.7-0.1
			c0.4,0,0.8,0.1,1.2,0.4c1.4,0.9,1.6,3.2,1.7,4.9c0,1,0.2,3.3,0.2,3.9c0.1,1.5,0.5,1.7,1.3,2c0.5,0.1,0.9,0.3,1.5,0.4
			c1.9,0.5,3,1.1,3.7,1.8c0.4,0.4,0.6,0.9,0.7,1.3c0.2,1.6-1.3,3.6-5.2,5.4c-4.3,2-9.5,2.5-13,2.1l-1.3-0.1
			c-2.9-0.4-4.5,3.3-2.8,5.9c1.1,1.6,4.1,2.7,7.1,2.7c6.9,0,12.2-3,14.2-5.5l0.2-0.2c0.1-0.1,0-0.2-0.1-0.1
			c-1.6,1.1-8.8,5.5-16.5,4.2c0,0-0.9-0.2-1.8-0.5c-0.7-0.3-2.1-0.9-2.3-2.4C46.7,90.7,50.6,88.8,50.6,88.8L50.6,88.8z M16.5,74.1
			c-2.2,0.4-4.1,1.6-5.2,3.3c-0.7-0.6-2-1.7-2.2-2.1c-1.9-3.5,2-10.4,4.7-14.2c6.7-9.6,17.2-16.8,22-15.5c0.8,0.2,3.4,3.3,3.4,3.3
			s-4.9,2.7-9.4,6.4C23.9,59.9,19.3,66.7,16.5,74.1L16.5,74.1z M20.2,90.3c-0.3,0.1-0.7,0.1-1,0.1c-3.2-0.1-6.7-3-7.1-6.5
			c-0.4-3.8,1.6-6.8,5-7.5c0.4-0.1,0.9-0.1,1.5-0.1c1.9,0.1,4.8,1.6,5.5,5.8C24.6,85.9,23.7,89.7,20.2,90.3L20.2,90.3z M64.1,83.5
			c0-0.1-0.2-0.8-0.5-1.6c-0.2-0.8-0.5-1.4-0.5-1.4c1-1.5,1-2.8,0.9-3.6c-0.1-0.9-0.5-1.7-1.3-2.6c-0.8-0.8-2.4-1.7-4.7-2.3
			l-1.2-0.3c0,0-0.1-2.8-0.1-4c0-0.9-0.1-2.2-0.5-3.5c-0.5-1.8-1.4-3.3-2.4-4.3c3-3.1,4.8-6.4,4.8-9.3c0-5.6-6.8-7.3-15.3-3.8
			l-1.8,0.8c0,0-3.2-3.2-3.3-3.2c-9.6-8.4-39.7,25-30.1,33.1l2.1,1.8c-0.5,1.4-0.8,3-0.6,4.8c0.2,2.2,1.4,4.4,3.2,6
			c1.8,1.6,4.1,2.6,6.4,2.6c3.7,8.6,12.3,13.9,22.3,14.2c10.7,0.3,19.8-4.7,23.5-13.8c0.2-0.6,1.3-3.5,1.3-6
			C66.5,84.5,65,83.5,64.1,83.5"/>
	</g>
</g>
</svg>
