<?xml version="1.0" encoding="utf-8"?>
<!-- Generator: Adobe Illustrator 26.2.1, SVG Export Plug-In . SVG Version: 6.00 Build 0)  -->
<svg version="1.1" id="Layer_1" xmlns="http://www.w3.org/2000/svg" xmlns:xlink="http://www.w3.org/1999/xlink" x="0px" y="0px"
	 viewBox="0 0 250 150" style="enable-background:new 0 0 250 150;" xml:space="preserve">
<style type="text/css">
	.st0{fill-rule:evenodd;clip-rule:evenodd;fill:#009DE2;}
	.st1{fill-rule:evenodd;clip-rule:evenodd;fill:#113984;}
	.st2{fill-rule:evenodd;clip-rule:evenodd;fill:#172C70;}
</style>
<g>
	<path class="st0" d="M29.6,60.2h15.8c8.5,0,11.7,4.3,11.2,10.6C55.8,81.2,49.5,87,41.1,87h-4.2c-1.1,0-1.9,0.8-2.2,2.8l-1.8,11.9
		c-0.1,0.8-0.5,1.2-1.1,1.3h-9.9c-0.9,0-1.3-0.7-1-2.3l6-38.3C27.1,60.9,27.9,60.2,29.6,60.2z"/>
	<path class="st1" d="M98.2,59.5c5.3,0,10.2,2.9,9.6,10.1c-0.8,8.5-5.4,13.3-12.6,13.3h-6.3c-0.9,0-1.3,0.7-1.6,2.3L86,92.9
		c-0.2,1.2-0.8,1.8-1.7,1.8h-5.9c-0.9,0-1.3-0.6-1.1-1.9l4.9-31.2c0.2-1.5,0.8-2.1,1.9-2.1H98.2L98.2,59.5z M88.6,76.2l4.8,0
		c3-0.1,5-2.2,5.2-5.9c0.1-2.3-1.4-4-3.9-4l-4.5,0L88.6,76.2L88.6,76.2z M123.7,92.3c0.5-0.5,1.1-0.7,1-0.1l-0.2,1.4
		c-0.1,0.8,0.2,1.2,0.9,1.2h5.2c0.9,0,1.3-0.4,1.5-1.7l3.2-20.2c0.2-1-0.1-1.5-0.9-1.5h-5.7c-0.5,0-0.8,0.3-0.9,1.1l-0.2,1.2
		c-0.1,0.6-0.4,0.8-0.7,0.1c-1-2.3-3.5-3.3-6.9-3.3c-8.1,0.2-13.5,6.3-14.1,14.1c-0.4,6.1,3.9,10.8,9.6,10.8
		C119.8,95.4,121.6,94.2,123.7,92.3L123.7,92.3z M119.4,89.2c-3.5,0-5.9-2.8-5.4-6.2c0.5-3.4,3.7-6.2,7.2-6.2s5.9,2.8,5.4,6.2
		C126.1,86.4,122.8,89.2,119.4,89.2L119.4,89.2z M145.7,71.2h-5.3c-1.1,0-1.5,0.8-1.2,1.8l6.6,19.3l-6.5,9.2
		c-0.5,0.8-0.1,1.5,0.6,1.5h6c0.9,0,1.3-0.2,1.8-0.9l20.2-29c0.6-0.9,0.3-1.8-0.7-1.8l-5.6,0c-1,0-1.4,0.4-1.9,1.2l-8.4,12.2
		l-3.8-12.3C147.2,71.6,146.7,71.2,145.7,71.2z"/>
	<path class="st0" d="M189,59.5c5.3,0,10.2,2.9,9.6,10.1c-0.8,8.5-5.4,13.3-12.6,13.3h-6.3c-0.9,0-1.3,0.7-1.6,2.3l-1.2,7.8
		c-0.2,1.2-0.8,1.8-1.7,1.8h-5.9c-0.9,0-1.3-0.6-1.1-1.9l4.9-31.2c0.2-1.5,0.8-2.1,1.9-2.1H189L189,59.5z M179.4,76.2l4.8,0
		c3-0.1,5-2.2,5.2-5.9c0.1-2.3-1.4-4-3.9-4l-4.5,0L179.4,76.2L179.4,76.2z M214.5,92.3c0.5-0.5,1.1-0.7,1-0.1l-0.2,1.4
		c-0.1,0.8,0.2,1.2,0.9,1.2h5.2c0.9,0,1.3-0.4,1.5-1.7l3.2-20.2c0.2-1-0.1-1.5-0.9-1.5h-5.7c-0.5,0-0.8,0.3-0.9,1.1l-0.2,1.2
		c-0.1,0.6-0.4,0.8-0.7,0.1c-1-2.3-3.5-3.3-6.9-3.3c-8.1,0.2-13.5,6.3-14.1,14.1c-0.4,6.1,3.9,10.8,9.6,10.8
		C210.6,95.4,212.4,94.2,214.5,92.3L214.5,92.3z M210.1,89.2c-3.5,0-5.9-2.8-5.4-6.2c0.5-3.4,3.7-6.2,7.2-6.2c3.5,0,5.9,2.8,5.4,6.2
		C216.9,86.4,213.6,89.2,210.1,89.2L210.1,89.2z M234.3,94.8h-6c-0.5,0-0.8-0.4-0.7-0.8l5.3-33.6c0.1-0.5,0.5-0.8,1-0.8h6
		c0.5,0,0.8,0.4,0.7,0.8L235.3,94C235.2,94.4,234.7,94.8,234.3,94.8z"/>
	<path class="st1" d="M19.7,47h15.8c4.5,0,9.7,0.1,13.3,3.3c2.4,2.1,3.6,5.4,3.3,9c-1,12.1-8.2,18.8-17.9,18.8h-7.8
		c-1.3,0-2.2,0.9-2.6,3.3l-2.2,13.8c-0.1,0.9-0.5,1.4-1.2,1.5h-9.7c-1.1,0-1.5-0.8-1.2-2.6l7-44.4C16.8,47.8,17.8,47,19.7,47z"/>
	<path class="st2" d="M24.1,79.9l2.8-17.5c0.2-1.5,1.1-2.3,2.8-2.3h15.8c2.6,0,4.7,0.4,6.4,1.2c-1.6,10.7-8.5,16.7-17.6,16.7h-7.8
		C25.3,78.1,24.5,78.6,24.1,79.9z"/>
</g>
</svg>
