<?xml version="1.0" encoding="utf-8"?>
<!-- Generator: Adobe Illustrator 26.2.1, SVG Export Plug-In . SVG Version: 6.00 Build 0)  -->
<svg version="1.1" id="Layer_1" xmlns="http://www.w3.org/2000/svg" xmlns:xlink="http://www.w3.org/1999/xlink" x="0px" y="0px"
	 viewBox="0 0 250 150" style="enable-background:new 0 0 250 150;" xml:space="preserve">
<style type="text/css">
	.st0{fill:#95BF47;}
	.st1{fill:#5E8E3E;}
	.st2{fill:#FFFFFF;}
	.st3{fill:#231F20;}
</style>
<g>
	<g>
		<path class="st0" d="M59.2,54.6c0-0.3-0.3-0.5-0.6-0.5c-0.2,0-5.2-0.4-5.2-0.4s-3.4-3.4-3.8-3.8c-0.4-0.4-1.1-0.3-1.4-0.2
			c0,0-0.8,0.2-1.9,0.6C45.2,47,43.2,44,39.6,44c-0.1,0-0.2,0-0.3,0c-1-1.3-2.3-1.9-3.4-1.9c-8.3,0-12.3,10.4-13.5,15.6
			c-3.2,1-5.5,1.7-5.8,1.8c-1.8,0.6-1.9,0.6-2.1,2.3c-0.2,1.3-4.9,37.7-4.9,37.7l36.7,6.9l19.9-4.3C66.2,102.1,59.2,54.9,59.2,54.6z
			 M44.3,50.9c-0.9,0.3-2,0.6-3.1,1c0-0.2,0-0.4,0-0.7c0-2.1-0.3-3.7-0.7-5C42.3,46.4,43.5,48.5,44.3,50.9z M38.2,46.6
			c0.5,1.3,0.8,3.1,0.8,5.6c0,0.1,0,0.2,0,0.4c-2,0.6-4.2,1.3-6.4,2C33.8,49.8,36.2,47.5,38.2,46.6z M35.7,44.3
			c0.4,0,0.7,0.1,1.1,0.4c-2.7,1.3-5.5,4.4-6.7,10.7c-1.8,0.5-3.5,1.1-5.1,1.6C26.4,52.1,29.8,44.3,35.7,44.3z"/>
		<path class="st1" d="M58.6,54.1c-0.2,0-5.2-0.4-5.2-0.4s-3.4-3.4-3.8-3.8c-0.1-0.1-0.3-0.2-0.5-0.2l-2.8,56.8l19.9-4.3
			c0,0-7-47.2-7-47.5C59.2,54.3,58.9,54.1,58.6,54.1z"/>
		<path class="st2" d="M39.6,65l-2.5,7.3c0,0-2.1-1.1-4.8-1.1c-3.9,0-4.1,2.4-4.1,3c0,3.3,8.7,4.6,8.7,12.4c0,6.1-3.9,10.1-9.1,10.1
			c-6.3,0-9.5-3.9-9.5-3.9l1.7-5.6c0,0,3.3,2.8,6.1,2.8c1.8,0,2.6-1.4,2.6-2.5c0-4.3-7.1-4.5-7.1-11.7c0-6,4.3-11.8,13-11.8
			C37.9,64.1,39.6,65,39.6,65z"/>
	</g>
	<path id="s" class="st3" d="M89.4,78.7c-2-1.1-3-2-3-3.2c0-1.6,1.4-2.6,3.6-2.6c2.6,0,4.9,1.1,4.9,1.1l1.8-5.6c0,0-1.7-1.3-6.6-1.3
		c-6.8,0-11.6,3.9-11.6,9.4c0,3.1,2.2,5.5,5.2,7.2c2.4,1.4,3.2,2.3,3.2,3.7c0,1.5-1.2,2.7-3.4,2.7c-3.3,0-6.4-1.7-6.4-1.7L75.2,94
		c0,0,2.9,1.9,7.7,1.9c7,0,12.1-3.5,12.1-9.7C95,82.9,92.5,80.5,89.4,78.7z"/>
	<path id="h" class="st3" d="M117.4,67c-3.5,0-6.2,1.6-8.3,4.1l-0.1-0.1l3-15.7h-7.8l-7.6,39.9h7.8l2.6-13.7c1-5.2,3.7-8.3,6.2-8.3
		c1.8,0,2.4,1.2,2.4,2.9c0,1.1-0.1,2.4-0.3,3.5l-2.9,15.6h7.8l3.1-16.1c0.3-1.7,0.6-3.7,0.6-5.1C123.8,69.7,121.5,67,117.4,67z"/>
	<path id="o" class="st3" d="M141.5,67c-9.4,0-15.6,8.5-15.6,18c0,6.1,3.7,10.9,10.8,10.9c9.2,0,15.5-8.3,15.5-18
		C152.1,72.4,148.8,67,141.5,67z M137.6,89.9c-2.7,0-3.8-2.3-3.8-5.1c0-4.5,2.3-11.8,6.6-11.8c2.8,0,3.7,2.4,3.7,4.7
		C144.1,82.6,141.8,89.9,137.6,89.9z"/>
	<path id="p" class="st3" d="M172.1,67c-5.3,0-8.3,4.6-8.3,4.6h-0.1l0.5-4.2h-6.9c-0.3,2.8-1,7.1-1.6,10.4l-5.4,28.6h7.8l2.2-11.6
		h0.2c0,0,1.6,1,4.6,1c9.2,0,15.2-9.4,15.2-18.9C180.1,71.7,177.8,67,172.1,67z M164.6,90c-2,0-3.2-1.1-3.2-1.1l1.3-7.3
		c0.9-4.9,3.5-8.1,6.2-8.1c2.4,0,3.1,2.2,3.1,4.3C172,82.9,169,90,164.6,90z"/>
	<path id="dot" class="st3" d="M191.3,55.8c-2.5,0-4.5,2-4.5,4.5c0,2.3,1.5,3.9,3.7,3.9h0.1c2.4,0,4.5-1.6,4.6-4.5
		C195.2,57.5,193.7,55.8,191.3,55.8z"/>
	<polygon id="i" class="st3" points="180.4,95.4 188.2,95.4 193.5,67.7 185.6,67.7 	"/>
	<path id="f" class="st3" d="M213.4,67.6h-5.4l0.3-1.3c0.5-2.7,2-5,4.6-5c1.4,0,2.5,0.4,2.5,0.4l1.5-6.1c0,0-1.4-0.7-4.2-0.7
		c-2.8,0-5.6,0.8-7.6,2.6c-2.7,2.3-3.9,5.6-4.5,8.8l-0.2,1.3h-3.6l-1.1,5.9h3.6L195,95.4h7.8l4.1-21.9h5.4L213.4,67.6z"/>
	<path id="y" class="st3" d="M232.2,67.7c0,0-4.9,12.3-7.1,19H225c-0.2-2.2-1.9-19-1.9-19h-8.2l4.7,25.4c0.1,0.6,0.1,0.9-0.2,1.3
		c-0.9,1.8-2.4,3.5-4.2,4.7c-1.5,1.1-3.1,1.8-4.4,2.2l2.2,6.6c1.6-0.3,4.9-1.6,7.6-4.2c3.6-3.3,6.9-8.5,10.3-15.5l9.6-20.5H232.2z"
		/>
</g>
</svg>
