<?xml version="1.0" encoding="utf-8"?>
<!-- Generator: Adobe Illustrator 26.5.0, SVG Export Plug-In . SVG Version: 6.00 Build 0)  -->
<svg version="1.1" id="Layer_1" xmlns="http://www.w3.org/2000/svg" xmlns:xlink="http://www.w3.org/1999/xlink" x="0px" y="0px"
	 viewBox="0 0 250 150" style="enable-background:new 0 0 250 150;" xml:space="preserve">
<style type="text/css">
	.st0{fill:#6772E5;}
</style>
<g>
	<path class="st0" d="M46.5,66.8c0-2,1.6-2.7,4.4-2.7c3.9,0,8.7,1.1,12.6,3.2V55.4C59.2,53.7,55,53,50.8,53
		c-10.3,0-17.2,5.4-17.2,14.3c0,14,19.3,11.8,19.3,17.8c0,2.3-2,3.1-4.8,3.1c-4.2,0-9.6-1.7-13.9-4v12.1c4.8,2,9.5,2.9,13.9,2.9
		c10.6,0,17.8-5.2,17.8-14.3C65.8,69.8,46.5,72.5,46.5,66.8z M80.8,42.9l-12.4,2.7l-0.1,40.6c0,7.5,5.6,13.1,13.1,13.1
		c4.2,0,7.2-0.7,8.9-1.7V87.3c-1.6,0.6-9.7,3-9.7-4.5V64.7h9.7V53.9h-9.7L80.8,42.9z M106.1,57.7l-0.8-3.8h-11v44.4H107V68.3
		c3-3.9,8.1-3.2,9.7-2.7V53.9C115.1,53.4,109.2,52.2,106.1,57.7z M119.8,53.9h12.7v44.4h-12.7C119.8,98.3,119.8,53.9,119.8,53.9z
		 M119.8,50.1l12.7-2.7V37l-12.7,2.7C119.8,39.7,119.8,50.1,119.8,50.1z M159.1,53c-5,0-8.1,2.3-9.9,3.9l-0.6-3.1h-11.2V113
		l12.7-2.7V96c1.9,1.3,4.5,3.2,8.9,3.2c9.1,0,17.3-7.3,17.3-23.4C176.3,61.1,168,53,159.1,53z M156,88c-3,0-4.8-1-6-2.4L150,66.8
		c1.3-1.5,3.1-2.5,6-2.5c4.6,0,7.8,5.2,7.8,11.8C163.9,82.9,160.7,88,156,88z M216.3,76.3c0-13-6.3-23.2-18.3-23.2
		c-12.1,0-19.4,10.2-19.4,23.1c0,15.3,8.6,23,21,23c6,0,10.6-1.4,14-3.3V85.8c-3.5,1.7-7.4,2.8-12.4,2.8c-4.9,0-9.3-1.7-9.8-7.7
		h24.8C216.2,80.2,216.3,77.5,216.3,76.3z M191.3,71.5c0-5.7,3.5-8.1,6.7-8.1c3.1,0,6.4,2.4,6.4,8.1H191.3L191.3,71.5z"/>
</g>
</svg>
