<?xml version="1.0" encoding="utf-8"?>
<!-- Generator: Adobe Illustrator 26.2.1, SVG Export Plug-In . SVG Version: 6.00 Build 0)  -->
<svg version="1.1" id="Layer_1" xmlns="http://www.w3.org/2000/svg" xmlns:xlink="http://www.w3.org/1999/xlink" x="0px" y="0px"
	 viewBox="0 0 250 150" style="enable-background:new 0 0 250 150;" xml:space="preserve">
<style type="text/css">
	.st0{fill:#2E76BF;}
</style>
<g id="XMLID_1_">
	<g>
		<path id="XMLID_00000017502618037783839010000011229347409993905799_" class="st0" d="M149.1,45.7l-5.7,45.8l0,0l-1.2,5.7l0.5,0v0
			c6.1-0.1,10.5-5.4,11.3-12.2l3.3-26.3C158.3,50.7,153.5,45.7,149.1,45.7z M229.6,70.4c0,0-3.9,12.3-4.2,13.3c-0.1-1-3-23.1-3-23.1
			c-6.7,0-10.2,4.7-12.1,9.8c0,0-4.8,12.3-5.1,13.3c0-1-0.7-13.2-0.7-13.2c-0.4-6.2-6-9.9-10.6-9.9l5.5,33.4c7,0,10.7-4.8,12.7-9.8
			c0,0,4.2-10.9,4.4-11.4c0,0.5,3,21.1,3,21.1c7,0,10.8-4.4,12.8-9.3l9.8-24.1C235.2,60.6,231.5,65.3,229.6,70.4z M181,76.8
			c-0.4,4.1-2.2,10.3-7.1,10.3c-5,0-4.2-7.3-3.8-10.7c0.5-3.7,2.6-8.9,7-8.9C181.1,67.5,181.5,72.2,181,76.8z M177.9,60
			c-7.8,0-15.1,5.7-17.4,14.8c-2.3,9,1.2,19.7,12.6,19.7c11.5,0,18-11.1,18-20.3C191.2,64.9,184.9,60,177.9,60z M142.8,60.6H136
			l0-0.4c0.5-4.4,1.5-6.7,4.9-7.1c2.3-0.2,3.4-1.5,3.6-2.8c0.2-1,0.8-4.7,0.8-4.7c-13.6-0.1-17.8,5.8-18.9,14.7l0,0.2l-0.1,0
			c-2.2,0-4.6,2.5-5,5.7l-0.1,1.2h4.5l-3.8,31.3l-1.1,5.6l0.5,0c6.3-0.2,10.4-5.2,11.3-12.5l3-24.5h2.1c2.1,0,4.5-2.1,5-5.6
			L142.8,60.6z M108.3,77.1c-1,5.9-4.3,9.9-7.5,9.9c-3.2,0-4.5-1.4-4.5-1.4c0.6-5.2,1-8.3,2.2-11c1.2-2.7,3.9-7.1,6.8-7.1
			C108.1,67.4,109.3,71.2,108.3,77.1z M109.2,59.8c-4.3,0-7.6,2.3-10.4,5.8l0,0l2.5-20.1c-5.7,0-10.4,5-11.3,12.4l-4.4,35.8
			c3.3,0,6.8-1,8.7-3.4c1.7,2.2,4.2,3.9,7.9,3.9c9.7,0,16.3-11.2,16.3-21.8C118.6,62.9,113.9,59.8,109.2,59.8z M43.7,70.4
			c0,0-3.9,12.3-4.2,13.3c-0.1-1-3-23.1-3-23.1c-6.7,0-10.2,4.7-12.1,9.8c0,0-4.8,12.3-5.1,13.3c0-1-0.7-13.2-0.7-13.2
			c-0.4-6.2-6-9.9-10.6-9.9L13.4,94c7,0,10.7-4.8,12.7-9.8c0,0,4.2-10.9,4.4-11.4c0,0.5,3,21.1,3,21.1c7,0,10.8-4.4,12.8-9.3
			l9.8-24.1C49.2,60.6,45.5,65.3,43.7,70.4z M74.5,69.3c-0.1,1.3-0.6,3.5-9.9,4.8c1.9-6.9,5.6-7.4,7.4-7.4
			C73.6,66.6,74.6,67.9,74.5,69.3z M83.5,68.6c0-4.2-4.1-8.7-11.1-8.7c-7.9,0-16.7,5.8-18,17.4c-1.4,11.7,6,16.9,13.3,16.9
			c7.3,0,11.2-2.9,15.1-6.7c-3.4-4.3-7.8-2.3-8.6-1.9c-0.9,0.5-2.1,1.1-4.6,1.1c-2.8,0-5.7-1.3-5.7-6.6
			C82.1,78.5,83.5,72.8,83.5,68.6z"/>
	</g>
</g>
</svg>
