<?xml version="1.0" encoding="utf-8"?>
<!-- Generator: Adobe Illustrator 26.2.1, SVG Export Plug-In . SVG Version: 6.00 Build 0)  -->
<svg version="1.1" id="Layer_1" xmlns="http://www.w3.org/2000/svg" xmlns:xlink="http://www.w3.org/1999/xlink" x="0px" y="0px"
	 viewBox="0 0 250 150" style="enable-background:new 0 0 250 150;" xml:space="preserve">
<style type="text/css">
	.st0{fill-rule:evenodd;clip-rule:evenodd;fill:#9C5C8F;}
	.st1{fill-rule:evenodd;clip-rule:evenodd;fill:#FFFFFF;}
	.st2{fill-rule:evenodd;clip-rule:evenodd;}
</style>
<g>
	<path class="st0" d="M5.4,55.4c1.1-2.7,3.9-4.6,6.9-4.6c22.1,0,44.2,0,66.3,0c1.9,0,3.8,0.7,5.2,2c1.6,1.4,2.5,3.6,2.5,5.8
		c0,8.5,0,16.9,0,25.4c0,3.8-3.4,7.2-7.2,7.3c-8.1,0-16.1,0-24.2,0c1.1,2.7,2.2,5.3,3.3,8c-4.8-2.6-9.5-5.4-14.4-8
		c-10.6-0.1-21.2,0-31.8-0.1c-3.8-0.1-7.1-3.5-7.2-7.3c0-8.3,0-16.6,0-24.9C4.8,57.8,4.9,56.5,5.4,55.4L5.4,55.4z"/>
	<path class="st1" d="M37.8,56c1.2-1.3,3.5-0.9,4.4,0.6c0.5,0.8,0.5,1.8,0.1,2.6c-1.7,3.3-2.4,7.1-3.1,10.7
		c-0.8,4.8-1.4,9.6-1.2,14.5c0.1,1.2-0.5,2.7-1.9,3c-1.3,0.3-2.4-0.5-3.2-1.4c-3.6-3.9-5.6-8.9-7.1-13.9c-1.5,2.9-3,5.9-4.4,8.8
		c-1,2-2.1,4-3.7,5.6c-0.7,0.7-1.8,1.3-2.7,0.6c-1.3-1.2-1.6-3-2.2-4.6c-2.1-7.3-3.3-14.9-4.6-22.4c-0.3-1.3,0.2-2.8,1.5-3.3
		c1-0.4,2.3-0.4,3.2,0.3c0.6,0.5,0.8,1.4,0.9,2.1c0.9,5.8,1.9,11.6,3.3,17.4c2.4-4.6,4.8-9.2,7.2-13.7c0.4-0.7,0.8-1.3,1.4-1.8
		c0.9-0.6,2.2-0.5,2.9,0.3c0.6,0.6,0.8,1.5,1,2.4c0.7,3.8,1.7,7.5,3.1,11.1c0.6-5.4,1.4-10.9,3.3-16C36.7,57.9,37.1,56.9,37.8,56
		L37.8,56z M51.4,58.9c2.6-0.3,5.4,0.5,7.2,2.5c1.4,1.6,2.3,3.8,2.5,5.9c0.4,3.7-0.2,7.5-2,10.7c-1,1.9-2.3,3.6-4.1,4.7
		c-2.7,1.6-6.3,1.4-8.9-0.3c-2.1-1.4-3.2-3.8-3.7-6.3c-1-5.5,0.7-11.6,4.8-15.4C48.3,59.8,49.8,59.1,51.4,58.9L51.4,58.9z
		 M51.9,64.5c-1.2,0.4-2,1.6-2.7,2.6c-1.7,2.7-2.2,6.3-0.8,9.2c0.4,0.8,0.9,1.6,1.8,1.8c1,0.2,1.8-0.4,2.5-1
		c1.5-1.3,2.3-3.3,2.7-5.2c0.4-2.2,0.2-4.7-1.1-6.6C53.8,64.5,52.8,64.2,51.9,64.5L51.9,64.5z M72.2,58.9c2.5-0.3,5.3,0.5,7.1,2.4
		c1.6,1.7,2.4,4,2.7,6.3c0.4,3.5-0.3,7.2-2,10.4c-1,1.9-2.3,3.7-4.2,4.8c-2.6,1.5-6,1.4-8.6-0.1c-1.7-1-2.9-2.8-3.5-4.7
		c-1.8-5.7-0.3-12.4,3.9-16.8C68.8,60,70.4,59.1,72.2,58.9L72.2,58.9z M72.7,64.5c-1.4,0.5-2.2,1.8-2.9,3c-1.5,2.7-1.9,6.2-0.5,9
		c0.4,0.8,1,1.6,2,1.6c1,0,1.9-0.6,2.6-1.3c1.5-1.5,2.2-3.7,2.5-5.8c0.3-2-0.1-4.1-1.2-5.8C74.6,64.5,73.6,64.2,72.7,64.5L72.7,64.5
		z"/>
	<path class="st2" d="M100,59.6c2.2-0.5,4.5-0.4,6.7,0.1c0,1.8,0,3.6,0,5.4c-1.8-0.4-3.8-0.8-5.6,0c-2.1,1-3.2,3.4-3.3,5.7
		c-0.1,2.3,0.6,4.8,2.6,6.1c1.8,1.2,4.2,1,6.2,0.4c0,1.8,0,3.6,0,5.4c-2.7,0.8-5.6,0.7-8.2-0.3c-3.1-1.2-5.6-3.9-6.6-7.1
		c-0.7-2.4-0.8-5.1-0.2-7.5C92.7,63.8,96,60.5,100,59.6L100,59.6z M116.2,59.4c2.7-0.3,5.7,0.1,7.9,1.9c2.1,1.6,3.2,4.3,3.6,6.9
		c0.4,2.8,0.3,5.8-0.6,8.5c-0.7,2.3-2.3,4.5-4.6,5.5c-2.3,1.1-5,1.2-7.4,0.6c-2.3-0.5-4.3-2-5.4-4c-1.6-2.7-1.8-6-1.7-9
		c0.1-2.7,0.8-5.4,2.6-7.5C112,60.6,114.1,59.6,116.2,59.4L116.2,59.4z M117.1,64.5c-1.2,0.3-1.8,1.5-2.1,2.5
		c-0.6,2.2-0.5,4.4-0.3,6.6c0.1,1.2,0.3,2.5,1.1,3.4c1.1,1.3,3.4,1.1,4.4-0.2c0.7-0.8,0.9-1.9,1-3c0.2-1.9,0.3-3.7,0-5.6
		c-0.2-1.1-0.5-2.3-1.3-3.1C119.1,64.5,118,64.3,117.1,64.5L117.1,64.5z M223.9,59.7c2.3-0.6,4.8-0.5,7.1,0c0.1,1.8,0,3.6,0,5.4
		c-1.8-0.4-3.7-0.8-5.5-0.1c-2,0.9-3.2,3-3.4,5.2c-0.2,2.4,0.4,5.1,2.5,6.5c1.8,1.3,4.2,1,6.3,0.4c0,1.8,0.1,3.6,0,5.4
		c-2.8,0.7-5.9,0.6-8.7-0.5c-3-1.3-5.3-4-6.1-7.1c-0.7-2.4-0.7-5-0.1-7.4C217,63.8,220.2,60.7,223.9,59.7L223.9,59.7z M131.3,59.9
		c2.6,0,5.2,0,7.7,0c0.9,4.2,1.8,8.4,2.6,12.6c0.7-4.2,1.7-8.4,2.7-12.6c2.6,0,5.3,0,7.9,0c1,7.6,2,15.1,3.1,22.7c-2,0-4,0-6.1,0
		c-0.6-5.2-1.1-10.4-1.7-15.5c-1.2,5.2-2.5,10.4-3.8,15.5c-1.4,0-2.8,0-4.1,0c-1.3-5.2-2.6-10.4-4-15.6c-0.5,5.2-1,10.4-1.6,15.6
		c-1.9,0-3.9,0-5.8,0C129.3,75,130.3,67.5,131.3,59.9L131.3,59.9z M159,59.9c2.6,0,5.2,0,7.7,0c0.9,4.2,1.8,8.4,2.6,12.6
		c0.7-4.2,1.7-8.4,2.7-12.6c2.6,0,5.3,0,7.9,0c1,7.6,2,15.1,3.1,22.7c-2,0-4,0-6.1,0c-0.6-5.2-1.1-10.4-1.6-15.5
		c-1.3,5.2-2.5,10.4-3.8,15.5c-1.4,0-2.8,0-4.1,0c-1.3-5.2-2.6-10.4-4-15.6c-0.5,5.2-1,10.4-1.6,15.6c-1.9,0-3.9,0-5.8,0
		C157.1,75,158,67.5,159,59.9L159,59.9z M184.7,60c4.1-0.1,8.3,0,12.4,0c0,1.6,0,3.2,0,4.8c-2.1,0-4.2,0-6.3,0c0,1.4,0,2.8,0,4.2
		c1.8,0,3.6,0,5.4,0c0,1.6,0,3.1,0,4.7c-1.8,0-3.6,0-5.4,0c0,1.4,0,2.8,0,4.2c2.1,0,4.2,0,6.3,0c0,1.6,0,3.2,0,4.8
		c-4.1,0-8.3,0-12.4,0C184.8,75.1,184.8,67.5,184.7,60L184.7,60z M199,59.9c2.6,0,5.2,0,7.8,0c2.4,0.1,5,0.7,6.9,2.4
		c1.6,1.5,2.2,4,1.6,6.2c-0.5,1.7-1.8,3.1-3.4,3.9c1.6,3.4,3.3,6.8,4.9,10.2c-2.2,0-4.3,0-6.5,0c-1.7-3.5-3.3-7-5-10.4
		c0,3.5,0,7,0,10.4c-2,0-4.1,0-6.1,0C199,75,199,67.5,199,59.9L199,59.9z M205.1,64.3c0,1.8,0,3.6,0,5.4c1.1-0.1,2.3-0.1,3.3-0.8
		c1.1-0.8,1-2.5,0.3-3.5C207.8,64.4,206.3,64.4,205.1,64.3L205.1,64.3z M232.8,59.9c4.1,0,8.3,0,12.4,0c0,1.6,0,3.2,0,4.8
		c-2.1,0-4.2,0-6.3,0c0,1.4,0,2.8,0,4.1c1.8,0,3.6,0,5.4,0c0,1.6,0,3.1,0,4.7c-1.8,0-3.6,0-5.4,0c0,1.4,0,2.8,0,4.2
		c2.1,0,4.2,0,6.3,0c0,1.6,0,3.2,0,4.8c-4.1,0-8.3,0-12.4,0C232.8,75,232.8,67.5,232.8,59.9L232.8,59.9z"/>
</g>
</svg>
