<?xml version="1.0" encoding="utf-8"?>
<!-- Generator: Adobe Illustrator 26.2.1, SVG Export Plug-In . SVG Version: 6.00 Build 0)  -->
<svg version="1.1" id="Layer_1" xmlns="http://www.w3.org/2000/svg" xmlns:xlink="http://www.w3.org/1999/xlink" x="0px" y="0px"
	 viewBox="0 0 250 150" style="enable-background:new 0 0 250 150;" xml:space="preserve">
<style type="text/css">
	.st0{fill:#00749A;}
	.st1{fill:#464342;}
</style>
<g>
	<path class="st0" d="M143.8,69.3h-9.2v1c2.9,0,3.4,0.6,3.4,4.3v6.6c0,3.7-0.5,4.3-3.4,4.3c-2.2-0.3-3.7-1.5-5.8-3.8l-2.4-2.6
		c3.2-0.6,4.9-2.6,4.9-4.9c0-2.8-2.4-5-7-5h-9.1v1c2.9,0,3.4,0.6,3.4,4.3v6.6c0,3.7-0.5,4.3-3.4,4.3v1h10.3v-1
		c-2.9,0-3.4-0.7-3.4-4.3v-1.9h0.9l5.7,7.2h15c7.4,0,10.6-3.9,10.6-8.6C154.4,73.2,151.2,69.3,143.8,69.3L143.8,69.3L143.8,69.3z
		 M122.1,77.7v-6.9h2.1c2.3,0,3.4,1.6,3.4,3.5c0,1.8-1,3.4-3.4,3.4L122.1,77.7L122.1,77.7L122.1,77.7z M143.9,84.9h-0.4
		c-1.9,0-2.1-0.5-2.1-2.8V70.9h2.5c5.4,0,6.4,3.9,6.4,7C150.3,81,149.3,84.9,143.9,84.9L143.9,84.9L143.9,84.9z M86.5,79.7L90,69.1
		c1-3,0.6-3.9-2.7-3.9v-1H97v1c-3.3,0-4,0.8-5.3,4.5l-5.9,17.7h-0.7l-5.3-16.2l-5.4,16.2h-0.7l-5.7-17.7C66.8,66,66,65.2,63,65.2v-1
		h11.5v1c-3,0-3.9,0.7-2.8,3.9l3.5,10.5l5.2-15.5h1L86.5,79.7L86.5,79.7z M104,87.2c-5.7,0-10.3-4.2-10.3-9.3
		c0-5.1,4.6-9.2,10.3-9.2c5.7,0,10.3,4.2,10.3,9.2C114.3,83,109.7,87.2,104,87.2L104,87.2L104,87.2z M104,70.3
		c-4.8,0-6.4,4.3-6.4,7.6c0,3.4,1.7,7.6,6.4,7.6c4.8,0,6.5-4.2,6.5-7.6C110.5,74.5,108.8,70.3,104,70.3L104,70.3L104,70.3z"/>
	<path class="st1" d="M167.1,85.5v1h-11.8v-1c3.5,0,4.1-0.9,4.1-6v-8.3c0-5.2-0.6-6-4.1-6v-1H166c5.3,0,8.3,2.7,8.3,6.4
		c0,3.6-2.9,6.4-8.3,6.4H163v2.5C163,84.6,163.7,85.5,167.1,85.5L167.1,85.5L167.1,85.5z M166,66H163v9h2.9c2.9,0,4.2-2,4.2-4.4
		C170.2,68.1,168.9,66,166,66L166,66L166,66z M209.7,81.7l-0.3,0.9c-0.5,1.7-1,2.3-4.7,2.3h-0.7c-2.7,0-3.1-0.6-3.1-4.3v-2.4
		c4,0,4.3,0.4,4.3,3h1v-7.7h-1c0,2.7-0.3,3-4.3,3v-5.8h2.8c3.7,0,4.2,0.6,4.7,2.3l0.3,1h0.8l-0.4-4.9H194v1c2.9,0,3.4,0.6,3.4,4.3
		v6.6c0,3.4-0.4,4.2-2.7,4.3c-2.2-0.3-3.7-1.5-5.7-3.8l-2.4-2.6c3.2-0.6,4.9-2.6,4.9-4.9c0-2.8-2.4-5-7-5h-9.1v1
		c2.9,0,3.4,0.6,3.4,4.3v6.6c0,3.7-0.5,4.3-3.4,4.3v1h10.3v-1c-2.9,0-3.4-0.7-3.4-4.3v-1.9h0.9l5.7,7.2h21.2l0.3-4.9L209.7,81.7
		L209.7,81.7L209.7,81.7z M182.4,77.7v-6.9h2.1c2.3,0,3.4,1.6,3.4,3.5c0,1.8-1,3.4-3.4,3.4L182.4,77.7L182.4,77.7L182.4,77.7z
		 M220.2,87.2c-2.1,0-3.9-1.1-4.6-1.8c-0.3,0.3-0.7,1-0.8,1.8h-1v-7.1h1c0.4,3.4,2.8,5.4,5.8,5.4c1.7,0,3-0.9,3-2.5
		c0-1.3-1.2-2.4-3.3-3.4l-2.9-1.4c-2.1-1-3.6-2.7-3.6-5c0-2.5,2.3-4.6,5.5-4.6c1.7,0,3.1,0.6,4,1.3c0.3-0.2,0.5-0.8,0.7-1.4h1v6.1
		h-1.1c-0.4-2.4-1.7-4.4-4.4-4.4c-1.4,0-2.8,0.8-2.8,2.1c0,1.3,1.1,2.1,3.6,3.2l2.8,1.4c2.5,1.2,3.5,3.1,3.5,4.6
		C226.5,84.9,223.7,87.2,220.2,87.2L220.2,87.2L220.2,87.2z M236.1,87.2c-2.1,0-3.9-1.1-4.6-1.8c-0.3,0.3-0.7,1-0.8,1.8h-1v-7.1h1
		c0.4,3.4,2.8,5.4,5.8,5.4c1.7,0,3-0.9,3-2.5c0-1.3-1.2-2.4-3.3-3.4l-2.9-1.4c-2.1-1-3.6-2.7-3.6-5c0-2.5,2.3-4.6,5.5-4.6
		c1.7,0,3.1,0.6,4,1.3c0.3-0.2,0.5-0.8,0.7-1.4h1v6.1h-1.1c-0.4-2.4-1.7-4.4-4.4-4.4c-1.4,0-2.8,0.8-2.8,2.1c0,1.3,1.1,2.1,3.6,3.2
		L239,77c2.5,1.2,3.5,3.1,3.5,4.6C242.4,84.9,239.6,87.2,236.1,87.2L236.1,87.2L236.1,87.2z"/>
	<g>
		<path class="st1" d="M11.4,75c0,9,5.3,16.9,12.9,20.6L13.3,65.7C12.1,68.5,11.4,71.7,11.4,75L11.4,75L11.4,75z M49.6,73.8
			c0-2.8-1-4.8-1.9-6.3c-1.2-1.9-2.2-3.5-2.2-5.4c0-2.1,1.6-4.1,3.8-4.1c0.1,0,0.2,0,0.3,0c-4.1-3.7-9.5-6-15.4-6
			c-8,0-15,4.1-19.1,10.3c0.5,0,1,0,1.5,0c2.4,0,6.1-0.3,6.1-0.3c1.2-0.1,1.4,1.7,0.1,1.9c0,0-1.2,0.1-2.6,0.2L28.5,89l5-15L30,64.3
			c-1.2-0.1-2.4-0.2-2.4-0.2c-1.2-0.1-1.1-2,0.1-1.9c0,0,3.8,0.3,6,0.3c2.4,0,6.1-0.3,6.1-0.3c1.2-0.1,1.4,1.7,0.1,1.9
			c0,0-1.2,0.1-2.6,0.2l8.3,24.6l2.3-7.6C48.9,78.1,49.6,75.8,49.6,73.8L49.6,73.8L49.6,73.8z M34.6,77l-6.9,19.9
			c2,0.6,4.2,0.9,6.5,0.9c2.7,0,5.2-0.5,7.6-1.3c-0.1-0.1-0.1-0.2-0.2-0.3L34.6,77L34.6,77z M54.3,64c0.1,0.7,0.2,1.5,0.2,2.4
			c0,2.3-0.4,4.9-1.7,8.2l-7,20.2c6.8-4,11.4-11.3,11.4-19.8C57.1,71,56.1,67.3,54.3,64L54.3,64L54.3,64z M34.2,48.4
			c-14.7,0-26.6,12-26.6,26.6c0,14.7,12,26.6,26.6,26.6c14.7,0,26.6-12,26.6-26.6C60.9,60.3,48.9,48.4,34.2,48.4L34.2,48.4
			L34.2,48.4z M34.2,100.4C20.2,100.4,8.8,89,8.8,75c0-14,11.4-25.4,25.4-25.4c14,0,25.4,11.4,25.4,25.4
			C59.6,89,48.2,100.4,34.2,100.4L34.2,100.4L34.2,100.4z"/>
	</g>
</g>
</svg>
